G04 (created by PCBNEW (2013-07-07 BZR 4022)-stable) date 3/14/2014 4:09:09 PM*
%MOIN*%
G04 Gerber Fmt 3.4, Leading zero omitted, Abs format*
%FSLAX34Y34*%
G01*
G70*
G90*
G04 APERTURE LIST*
%ADD10C,0.00590551*%
%ADD11C,0.011811*%
G04 APERTURE END LIST*
G54D10*
G54D11*
X67582Y-42339D02*
X67582Y-41748D01*
X67329Y-41804D02*
X67301Y-41776D01*
X67244Y-41748D01*
X67104Y-41748D01*
X67048Y-41776D01*
X67019Y-41804D01*
X66991Y-41860D01*
X66991Y-41917D01*
X67019Y-42001D01*
X67357Y-42339D01*
X66991Y-42339D01*
X66401Y-42282D02*
X66429Y-42310D01*
X66513Y-42339D01*
X66569Y-42339D01*
X66654Y-42310D01*
X66710Y-42254D01*
X66738Y-42198D01*
X66766Y-42085D01*
X66766Y-42001D01*
X66738Y-41889D01*
X66710Y-41832D01*
X66654Y-41776D01*
X66569Y-41748D01*
X66513Y-41748D01*
X66429Y-41776D01*
X66401Y-41804D01*
X65360Y-42339D02*
X65557Y-42057D01*
X65698Y-42339D02*
X65698Y-41748D01*
X65473Y-41748D01*
X65416Y-41776D01*
X65388Y-41804D01*
X65360Y-41860D01*
X65360Y-41945D01*
X65388Y-42001D01*
X65416Y-42029D01*
X65473Y-42057D01*
X65698Y-42057D01*
X65107Y-42029D02*
X64910Y-42029D01*
X64826Y-42339D02*
X65107Y-42339D01*
X65107Y-41748D01*
X64826Y-41748D01*
X64292Y-42339D02*
X64573Y-42339D01*
X64573Y-41748D01*
X64123Y-42170D02*
X63842Y-42170D01*
X64179Y-42339D02*
X63982Y-41748D01*
X63785Y-42339D01*
X63476Y-42057D02*
X63476Y-42339D01*
X63673Y-41748D02*
X63476Y-42057D01*
X63279Y-41748D01*
X62436Y-42029D02*
X62351Y-42057D01*
X62323Y-42085D01*
X62295Y-42142D01*
X62295Y-42226D01*
X62323Y-42282D01*
X62351Y-42310D01*
X62407Y-42339D01*
X62632Y-42339D01*
X62632Y-41748D01*
X62436Y-41748D01*
X62379Y-41776D01*
X62351Y-41804D01*
X62323Y-41860D01*
X62323Y-41917D01*
X62351Y-41973D01*
X62379Y-42001D01*
X62436Y-42029D01*
X62632Y-42029D01*
X61929Y-41748D02*
X61817Y-41748D01*
X61761Y-41776D01*
X61704Y-41832D01*
X61676Y-41945D01*
X61676Y-42142D01*
X61704Y-42254D01*
X61761Y-42310D01*
X61817Y-42339D01*
X61929Y-42339D01*
X61986Y-42310D01*
X62042Y-42254D01*
X62070Y-42142D01*
X62070Y-41945D01*
X62042Y-41832D01*
X61986Y-41776D01*
X61929Y-41748D01*
X61451Y-42170D02*
X61170Y-42170D01*
X61508Y-42339D02*
X61311Y-41748D01*
X61114Y-42339D01*
X60580Y-42339D02*
X60776Y-42057D01*
X60917Y-42339D02*
X60917Y-41748D01*
X60692Y-41748D01*
X60636Y-41776D01*
X60608Y-41804D01*
X60580Y-41860D01*
X60580Y-41945D01*
X60608Y-42001D01*
X60636Y-42029D01*
X60692Y-42057D01*
X60917Y-42057D01*
X60326Y-42339D02*
X60326Y-41748D01*
X60186Y-41748D01*
X60102Y-41776D01*
X60045Y-41832D01*
X60017Y-41889D01*
X59989Y-42001D01*
X59989Y-42085D01*
X60017Y-42198D01*
X60045Y-42254D01*
X60102Y-42310D01*
X60186Y-42339D01*
X60326Y-42339D01*
X66963Y-42693D02*
X66766Y-43283D01*
X66569Y-42693D01*
X66063Y-43283D02*
X66401Y-43283D01*
X66232Y-43283D02*
X66232Y-42693D01*
X66288Y-42777D01*
X66344Y-42833D01*
X66401Y-42862D01*
X65810Y-43227D02*
X65782Y-43255D01*
X65810Y-43283D01*
X65838Y-43255D01*
X65810Y-43227D01*
X65810Y-43283D01*
X65416Y-42693D02*
X65360Y-42693D01*
X65304Y-42721D01*
X65276Y-42749D01*
X65248Y-42805D01*
X65220Y-42918D01*
X65220Y-43058D01*
X65248Y-43171D01*
X65276Y-43227D01*
X65304Y-43255D01*
X65360Y-43283D01*
X65416Y-43283D01*
X65473Y-43255D01*
X65501Y-43227D01*
X65529Y-43171D01*
X65557Y-43058D01*
X65557Y-42918D01*
X65529Y-42805D01*
X65501Y-42749D01*
X65473Y-42721D01*
X65416Y-42693D01*
X63645Y-43255D02*
X63560Y-43283D01*
X63420Y-43283D01*
X63364Y-43255D01*
X63335Y-43227D01*
X63307Y-43171D01*
X63307Y-43115D01*
X63335Y-43058D01*
X63364Y-43030D01*
X63420Y-43002D01*
X63532Y-42974D01*
X63589Y-42946D01*
X63617Y-42918D01*
X63645Y-42862D01*
X63645Y-42805D01*
X63617Y-42749D01*
X63589Y-42721D01*
X63532Y-42693D01*
X63392Y-42693D01*
X63307Y-42721D01*
X63054Y-43283D02*
X63054Y-42693D01*
X62717Y-43283D01*
X62717Y-42693D01*
X62436Y-43283D02*
X62436Y-42693D01*
X62154Y-43283D02*
X62154Y-42693D01*
X62014Y-42693D01*
X61929Y-42721D01*
X61873Y-42777D01*
X61845Y-42833D01*
X61817Y-42946D01*
X61817Y-43030D01*
X61845Y-43143D01*
X61873Y-43199D01*
X61929Y-43255D01*
X62014Y-43283D01*
X62154Y-43283D01*
X61564Y-42974D02*
X61367Y-42974D01*
X61283Y-43283D02*
X61564Y-43283D01*
X61564Y-42693D01*
X61283Y-42693D01*
X60692Y-43283D02*
X60889Y-43002D01*
X61030Y-43283D02*
X61030Y-42693D01*
X60805Y-42693D01*
X60748Y-42721D01*
X60720Y-42749D01*
X60692Y-42805D01*
X60692Y-42890D01*
X60720Y-42946D01*
X60748Y-42974D01*
X60805Y-43002D01*
X61030Y-43002D01*
M02*
