G04 (created by PCBNEW (2013-07-07 BZR 4022)-stable) date 3/14/2014 4:09:09 PM*
%MOIN*%
G04 Gerber Fmt 3.4, Leading zero omitted, Abs format*
%FSLAX34Y34*%
G01*
G70*
G90*
G04 APERTURE LIST*
%ADD10C,0.00590551*%
%ADD11R,0.055X0.055*%
%ADD12C,0.055*%
%ADD13C,0.083*%
%ADD14C,0.063*%
%ADD15R,0.0708661X0.0708661*%
%ADD16C,0.0708661*%
%ADD17C,0.16*%
%ADD18C,0.035*%
%ADD19C,0.025*%
%ADD20C,0.01*%
G04 APERTURE END LIST*
G54D10*
G54D11*
X40250Y-37500D03*
G54D12*
X40250Y-38500D03*
X40250Y-39500D03*
X40250Y-40500D03*
X40250Y-41500D03*
G54D11*
X41150Y-45500D03*
G54D12*
X41150Y-46500D03*
X41150Y-47500D03*
X44150Y-47500D03*
X44150Y-46500D03*
X44150Y-45500D03*
X57400Y-41500D03*
X56400Y-41500D03*
X55400Y-41500D03*
X54400Y-41500D03*
X53400Y-41500D03*
X52400Y-41500D03*
X51400Y-41500D03*
X50400Y-41500D03*
X49400Y-41500D03*
X48400Y-41500D03*
X47400Y-41500D03*
X46400Y-41500D03*
X45400Y-41500D03*
G54D11*
X58400Y-41500D03*
G54D12*
X45400Y-44500D03*
X46400Y-44500D03*
X47400Y-44500D03*
X48400Y-44500D03*
X49400Y-44500D03*
X50400Y-44500D03*
X51400Y-44500D03*
X52400Y-44500D03*
X53400Y-44500D03*
X54400Y-44500D03*
X55400Y-44500D03*
X56400Y-44500D03*
X57400Y-44500D03*
X58400Y-44500D03*
G54D11*
X51400Y-40500D03*
G54D12*
X52400Y-40500D03*
X53400Y-40500D03*
X54400Y-40500D03*
X55400Y-40500D03*
X56400Y-40500D03*
X57400Y-40500D03*
X58400Y-40500D03*
X59400Y-40500D03*
X59400Y-37500D03*
X58400Y-37500D03*
X57400Y-37500D03*
X56400Y-37500D03*
X55400Y-37500D03*
X54400Y-37500D03*
X53400Y-37500D03*
X52400Y-37500D03*
X51400Y-37500D03*
G54D11*
X58400Y-45500D03*
G54D12*
X57400Y-45500D03*
X56400Y-45500D03*
X55400Y-45500D03*
X54400Y-45500D03*
X53400Y-45500D03*
X52400Y-45500D03*
X51400Y-45500D03*
X50400Y-45500D03*
X50400Y-48500D03*
X51400Y-48500D03*
X52400Y-48500D03*
X53400Y-48500D03*
X54400Y-48500D03*
X55400Y-48500D03*
X56400Y-48500D03*
X57400Y-48500D03*
X58400Y-48500D03*
X48650Y-39500D03*
X48650Y-38500D03*
G54D13*
X41500Y-28850D03*
G54D14*
X40550Y-32150D03*
X42450Y-32150D03*
G54D13*
X40550Y-33720D03*
X42450Y-33720D03*
X45600Y-28850D03*
G54D14*
X44650Y-32150D03*
X46550Y-32150D03*
G54D13*
X44650Y-33720D03*
X46550Y-33720D03*
X49700Y-28850D03*
G54D14*
X48750Y-32150D03*
X50650Y-32150D03*
G54D13*
X48750Y-33720D03*
X50650Y-33720D03*
X53800Y-28850D03*
G54D14*
X52850Y-32150D03*
X54750Y-32150D03*
G54D13*
X52850Y-33720D03*
X54750Y-33720D03*
X57900Y-28850D03*
G54D14*
X56950Y-32150D03*
X58850Y-32150D03*
G54D13*
X56950Y-33720D03*
X58850Y-33720D03*
X62000Y-28850D03*
G54D14*
X61050Y-32150D03*
X62950Y-32150D03*
G54D13*
X61050Y-33720D03*
X62950Y-33720D03*
X66100Y-28850D03*
G54D14*
X65150Y-32150D03*
X67050Y-32150D03*
G54D13*
X65150Y-33720D03*
X67050Y-33720D03*
X70200Y-28850D03*
G54D14*
X69250Y-32150D03*
X71150Y-32150D03*
G54D13*
X69250Y-33720D03*
X71150Y-33720D03*
X41500Y-57100D03*
G54D14*
X42450Y-53800D03*
X40550Y-53800D03*
G54D13*
X42450Y-52230D03*
X40550Y-52230D03*
X45600Y-57100D03*
G54D14*
X46550Y-53800D03*
X44650Y-53800D03*
G54D13*
X46550Y-52230D03*
X44650Y-52230D03*
X49700Y-57100D03*
G54D14*
X50650Y-53800D03*
X48750Y-53800D03*
G54D13*
X50650Y-52230D03*
X48750Y-52230D03*
X53800Y-57100D03*
G54D14*
X54750Y-53800D03*
X52850Y-53800D03*
G54D13*
X54750Y-52230D03*
X52850Y-52230D03*
X57900Y-57100D03*
G54D14*
X58850Y-53800D03*
X56950Y-53800D03*
G54D13*
X58850Y-52230D03*
X56950Y-52230D03*
X62000Y-57100D03*
G54D14*
X62950Y-53800D03*
X61050Y-53800D03*
G54D13*
X62950Y-52230D03*
X61050Y-52230D03*
X66100Y-57100D03*
G54D14*
X67050Y-53800D03*
X65150Y-53800D03*
G54D13*
X67050Y-52230D03*
X65150Y-52230D03*
X70200Y-57100D03*
G54D14*
X71150Y-53800D03*
X69250Y-53800D03*
G54D13*
X71150Y-52230D03*
X69250Y-52230D03*
G54D15*
X71450Y-47050D03*
G54D16*
X71450Y-46050D03*
X70450Y-47050D03*
X70450Y-46050D03*
X69450Y-47050D03*
X69450Y-46050D03*
X68450Y-47050D03*
X68450Y-46050D03*
X67450Y-47050D03*
X67450Y-46050D03*
X66450Y-47050D03*
X66450Y-46050D03*
X65450Y-47050D03*
X65450Y-46050D03*
X64450Y-47050D03*
X64450Y-46050D03*
G54D15*
X64450Y-38050D03*
G54D16*
X64450Y-39050D03*
X65450Y-38050D03*
X65450Y-39050D03*
X66450Y-38050D03*
X66450Y-39050D03*
X67450Y-38050D03*
X67450Y-39050D03*
X68450Y-38050D03*
X68450Y-39050D03*
X69450Y-38050D03*
X69450Y-39050D03*
X70450Y-38050D03*
X70450Y-39050D03*
X71450Y-38050D03*
X71450Y-39050D03*
G54D17*
X46500Y-47850D03*
X46500Y-37850D03*
X62000Y-37850D03*
X62000Y-47850D03*
X69500Y-42850D03*
G54D18*
X55540Y-35897D03*
X56805Y-35899D03*
X62132Y-31767D03*
X57431Y-35894D03*
X60325Y-31433D03*
X57709Y-35089D03*
X62349Y-54329D03*
X57116Y-49936D03*
G54D19*
X63580Y-52230D02*
X62950Y-52230D01*
X65150Y-53800D02*
X63580Y-52230D01*
X50650Y-48750D02*
X50400Y-48500D01*
X50650Y-52230D02*
X50650Y-48750D01*
X49080Y-53800D02*
X50650Y-52230D01*
X48750Y-53800D02*
X49080Y-53800D01*
X48120Y-53800D02*
X48750Y-53800D01*
X46550Y-52230D02*
X48120Y-53800D01*
X54420Y-32150D02*
X54750Y-32150D01*
X52850Y-33720D02*
X54420Y-32150D01*
X42450Y-35620D02*
X42450Y-52230D01*
X40550Y-33720D02*
X42450Y-35620D01*
X44020Y-33720D02*
X42450Y-32150D01*
X44650Y-33720D02*
X44020Y-33720D01*
X51280Y-52230D02*
X50650Y-52230D01*
X52850Y-53800D02*
X51280Y-52230D01*
X59480Y-52230D02*
X58850Y-52230D01*
X61050Y-53800D02*
X59480Y-52230D01*
X58520Y-32150D02*
X56950Y-33720D01*
X58850Y-32150D02*
X58520Y-32150D01*
X61380Y-33720D02*
X62950Y-32150D01*
X61050Y-33720D02*
X61380Y-33720D01*
X56320Y-53800D02*
X54750Y-52230D01*
X56950Y-53800D02*
X56320Y-53800D01*
X41150Y-46500D02*
X41150Y-47500D01*
X41150Y-39400D02*
X41150Y-45500D01*
X40250Y-38500D02*
X41150Y-39400D01*
X41150Y-45500D02*
X41150Y-46500D01*
X58824Y-39924D02*
X59400Y-40500D01*
X49400Y-39924D02*
X58824Y-39924D01*
X49400Y-39250D02*
X49400Y-39924D01*
X48650Y-38500D02*
X49400Y-39250D01*
X49400Y-39924D02*
X49400Y-41500D01*
X64450Y-41950D02*
X64450Y-46050D01*
X63000Y-40500D02*
X64450Y-41950D01*
X64450Y-39050D02*
X63000Y-40500D01*
X63000Y-40500D02*
X59400Y-40500D01*
G54D20*
X51400Y-45500D02*
X51400Y-44500D01*
X52400Y-44500D02*
X52400Y-45500D01*
X53400Y-45500D02*
X53400Y-44500D01*
X54400Y-45500D02*
X54400Y-44500D01*
X55400Y-45500D02*
X55400Y-44500D01*
X56400Y-45500D02*
X56400Y-44500D01*
X57400Y-45500D02*
X57400Y-44500D01*
X58400Y-45500D02*
X58400Y-44500D01*
X58400Y-40500D02*
X58400Y-41500D01*
X57400Y-40500D02*
X57400Y-41500D01*
X56400Y-40500D02*
X56400Y-41500D01*
X55400Y-40500D02*
X55400Y-41500D01*
X54400Y-40500D02*
X54400Y-41500D01*
X53400Y-40500D02*
X53400Y-41500D01*
X52400Y-40500D02*
X52400Y-41500D01*
X51400Y-40500D02*
X51400Y-41500D01*
X47150Y-44500D02*
X47400Y-44500D01*
X44150Y-47500D02*
X47150Y-44500D01*
X50905Y-36005D02*
X52400Y-37500D01*
X48029Y-36005D02*
X50905Y-36005D01*
X44650Y-32626D02*
X48029Y-36005D01*
X44650Y-32150D02*
X44650Y-32626D01*
X55540Y-33559D02*
X55540Y-35897D01*
X56950Y-32150D02*
X55540Y-33559D01*
X57281Y-35423D02*
X56805Y-35899D01*
X57973Y-35423D02*
X57281Y-35423D01*
X61050Y-32346D02*
X57973Y-35423D01*
X61050Y-32150D02*
X61050Y-32346D01*
X58005Y-35894D02*
X62132Y-31767D01*
X57431Y-35894D02*
X58005Y-35894D01*
X57709Y-34049D02*
X57709Y-35089D01*
X60325Y-31433D02*
X57709Y-34049D01*
X57400Y-49379D02*
X62349Y-54329D01*
X57400Y-48500D02*
X57400Y-49379D01*
X56839Y-48060D02*
X56400Y-48500D01*
X57578Y-48060D02*
X56839Y-48060D01*
X57900Y-48381D02*
X57578Y-48060D01*
X57900Y-48619D02*
X57900Y-48381D01*
X60210Y-50930D02*
X57900Y-48619D01*
X60562Y-50930D02*
X60210Y-50930D01*
X61844Y-52211D02*
X60562Y-50930D01*
X61844Y-52694D02*
X61844Y-52211D01*
X62950Y-53800D02*
X61844Y-52694D01*
X58034Y-52984D02*
X58850Y-53800D01*
X58034Y-51334D02*
X58034Y-52984D01*
X55400Y-48699D02*
X58034Y-51334D01*
X55400Y-48500D02*
X55400Y-48699D01*
X54112Y-48787D02*
X54400Y-48500D01*
X54112Y-53162D02*
X54112Y-48787D01*
X54750Y-53800D02*
X54112Y-53162D01*
X50904Y-48004D02*
X51400Y-48500D01*
X48054Y-48004D02*
X50904Y-48004D01*
X42450Y-53608D02*
X48054Y-48004D01*
X42450Y-53800D02*
X42450Y-53608D01*
X50735Y-36835D02*
X51400Y-37500D01*
X46369Y-36835D02*
X50735Y-36835D01*
X41684Y-32150D02*
X46369Y-36835D01*
X40550Y-32150D02*
X41684Y-32150D01*
G54D19*
X70200Y-48929D02*
X70200Y-57100D01*
X71450Y-47679D02*
X70200Y-48929D01*
X71450Y-47050D02*
X71450Y-47679D01*
X65450Y-37946D02*
X65450Y-38050D01*
X63856Y-36352D02*
X65450Y-37946D01*
X54301Y-36352D02*
X63856Y-36352D01*
X50812Y-32864D02*
X54301Y-36352D01*
X50523Y-32864D02*
X50812Y-32864D01*
X46509Y-28850D02*
X50523Y-32864D01*
X45600Y-28850D02*
X46509Y-28850D01*
X60495Y-28850D02*
X57900Y-28850D01*
X63901Y-32255D02*
X60495Y-28850D01*
X63901Y-33501D02*
X63901Y-32255D01*
X68450Y-38050D02*
X63901Y-33501D01*
X64343Y-31193D02*
X62000Y-28850D01*
X64343Y-32187D02*
X64343Y-31193D01*
X65021Y-32865D02*
X64343Y-32187D01*
X65283Y-32865D02*
X65021Y-32865D01*
X65955Y-33536D02*
X65283Y-32865D01*
X65955Y-34555D02*
X65955Y-33536D01*
X69450Y-38050D02*
X65955Y-34555D01*
X68150Y-30900D02*
X66100Y-28850D01*
X68150Y-35750D02*
X68150Y-30900D01*
X70450Y-38050D02*
X68150Y-35750D01*
X70200Y-36800D02*
X70200Y-28850D01*
X71450Y-38050D02*
X70200Y-36800D01*
X68150Y-55049D02*
X66100Y-57100D01*
X68150Y-49349D02*
X68150Y-55049D01*
X70450Y-47050D02*
X68150Y-49349D01*
X66240Y-50259D02*
X69450Y-47050D01*
X66240Y-54116D02*
X66240Y-50259D01*
X63256Y-57100D02*
X66240Y-54116D01*
X62000Y-57100D02*
X63256Y-57100D01*
X65840Y-49659D02*
X68450Y-47050D01*
X65840Y-53950D02*
X65840Y-49659D01*
X64363Y-55427D02*
X65840Y-53950D01*
X59572Y-55427D02*
X64363Y-55427D01*
X57900Y-57100D02*
X59572Y-55427D01*
X47674Y-55025D02*
X45600Y-57100D01*
X62569Y-55025D02*
X47674Y-55025D01*
X63560Y-54033D02*
X62569Y-55025D01*
X63560Y-53574D02*
X63560Y-54033D01*
X63071Y-53084D02*
X63560Y-53574D01*
X62824Y-53084D02*
X63071Y-53084D01*
X62257Y-52517D02*
X62824Y-53084D01*
X62257Y-50242D02*
X62257Y-52517D01*
X65450Y-47050D02*
X62257Y-50242D01*
X64450Y-38050D02*
X63820Y-38050D01*
X62523Y-36753D02*
X63820Y-38050D01*
X52707Y-36753D02*
X62523Y-36753D01*
X49913Y-33959D02*
X52707Y-36753D01*
X49913Y-33901D02*
X49913Y-33959D01*
X49042Y-33029D02*
X49913Y-33901D01*
X46379Y-33029D02*
X49042Y-33029D01*
X42200Y-28850D02*
X46379Y-33029D01*
X41500Y-28850D02*
X42200Y-28850D01*
G54D20*
X49879Y-43020D02*
X50400Y-43020D01*
X48400Y-44500D02*
X49879Y-43020D01*
X50400Y-43020D02*
X50400Y-41500D01*
X55908Y-48728D02*
X57116Y-49936D01*
X55908Y-48404D02*
X55908Y-48728D01*
X55058Y-47555D02*
X55908Y-48404D01*
X53849Y-47555D02*
X55058Y-47555D01*
X51900Y-45606D02*
X53849Y-47555D01*
X51900Y-44392D02*
X51900Y-45606D01*
X50527Y-43020D02*
X51900Y-44392D01*
X50400Y-43020D02*
X50527Y-43020D01*
M02*
