G04 (created by PCBNEW (2013-07-07 BZR 4022)-stable) date 3/14/2014 4:09:09 PM*
%MOIN*%
G04 Gerber Fmt 3.4, Leading zero omitted, Abs format*
%FSLAX34Y34*%
G01*
G70*
G90*
G04 APERTURE LIST*
%ADD10C,0.00590551*%
%ADD11R,0.055X0.055*%
%ADD12C,0.055*%
%ADD13C,0.083*%
%ADD14C,0.063*%
%ADD15R,0.0708661X0.0708661*%
%ADD16C,0.0708661*%
%ADD17C,0.16*%
G04 APERTURE END LIST*
G54D10*
G54D11*
X40250Y-37500D03*
G54D12*
X40250Y-38500D03*
X40250Y-39500D03*
X40250Y-40500D03*
X40250Y-41500D03*
G54D11*
X41150Y-45500D03*
G54D12*
X41150Y-46500D03*
X41150Y-47500D03*
X44150Y-47500D03*
X44150Y-46500D03*
X44150Y-45500D03*
X57400Y-41500D03*
X56400Y-41500D03*
X55400Y-41500D03*
X54400Y-41500D03*
X53400Y-41500D03*
X52400Y-41500D03*
X51400Y-41500D03*
X50400Y-41500D03*
X49400Y-41500D03*
X48400Y-41500D03*
X47400Y-41500D03*
X46400Y-41500D03*
X45400Y-41500D03*
G54D11*
X58400Y-41500D03*
G54D12*
X45400Y-44500D03*
X46400Y-44500D03*
X47400Y-44500D03*
X48400Y-44500D03*
X49400Y-44500D03*
X50400Y-44500D03*
X51400Y-44500D03*
X52400Y-44500D03*
X53400Y-44500D03*
X54400Y-44500D03*
X55400Y-44500D03*
X56400Y-44500D03*
X57400Y-44500D03*
X58400Y-44500D03*
G54D11*
X51400Y-40500D03*
G54D12*
X52400Y-40500D03*
X53400Y-40500D03*
X54400Y-40500D03*
X55400Y-40500D03*
X56400Y-40500D03*
X57400Y-40500D03*
X58400Y-40500D03*
X59400Y-40500D03*
X59400Y-37500D03*
X58400Y-37500D03*
X57400Y-37500D03*
X56400Y-37500D03*
X55400Y-37500D03*
X54400Y-37500D03*
X53400Y-37500D03*
X52400Y-37500D03*
X51400Y-37500D03*
G54D11*
X58400Y-45500D03*
G54D12*
X57400Y-45500D03*
X56400Y-45500D03*
X55400Y-45500D03*
X54400Y-45500D03*
X53400Y-45500D03*
X52400Y-45500D03*
X51400Y-45500D03*
X50400Y-45500D03*
X50400Y-48500D03*
X51400Y-48500D03*
X52400Y-48500D03*
X53400Y-48500D03*
X54400Y-48500D03*
X55400Y-48500D03*
X56400Y-48500D03*
X57400Y-48500D03*
X58400Y-48500D03*
X48650Y-39500D03*
X48650Y-38500D03*
G54D13*
X41500Y-28850D03*
G54D14*
X40550Y-32150D03*
X42450Y-32150D03*
G54D13*
X40550Y-33720D03*
X42450Y-33720D03*
X45600Y-28850D03*
G54D14*
X44650Y-32150D03*
X46550Y-32150D03*
G54D13*
X44650Y-33720D03*
X46550Y-33720D03*
X49700Y-28850D03*
G54D14*
X48750Y-32150D03*
X50650Y-32150D03*
G54D13*
X48750Y-33720D03*
X50650Y-33720D03*
X53800Y-28850D03*
G54D14*
X52850Y-32150D03*
X54750Y-32150D03*
G54D13*
X52850Y-33720D03*
X54750Y-33720D03*
X57900Y-28850D03*
G54D14*
X56950Y-32150D03*
X58850Y-32150D03*
G54D13*
X56950Y-33720D03*
X58850Y-33720D03*
X62000Y-28850D03*
G54D14*
X61050Y-32150D03*
X62950Y-32150D03*
G54D13*
X61050Y-33720D03*
X62950Y-33720D03*
X66100Y-28850D03*
G54D14*
X65150Y-32150D03*
X67050Y-32150D03*
G54D13*
X65150Y-33720D03*
X67050Y-33720D03*
X70200Y-28850D03*
G54D14*
X69250Y-32150D03*
X71150Y-32150D03*
G54D13*
X69250Y-33720D03*
X71150Y-33720D03*
X41500Y-57100D03*
G54D14*
X42450Y-53800D03*
X40550Y-53800D03*
G54D13*
X42450Y-52230D03*
X40550Y-52230D03*
X45600Y-57100D03*
G54D14*
X46550Y-53800D03*
X44650Y-53800D03*
G54D13*
X46550Y-52230D03*
X44650Y-52230D03*
X49700Y-57100D03*
G54D14*
X50650Y-53800D03*
X48750Y-53800D03*
G54D13*
X50650Y-52230D03*
X48750Y-52230D03*
X53800Y-57100D03*
G54D14*
X54750Y-53800D03*
X52850Y-53800D03*
G54D13*
X54750Y-52230D03*
X52850Y-52230D03*
X57900Y-57100D03*
G54D14*
X58850Y-53800D03*
X56950Y-53800D03*
G54D13*
X58850Y-52230D03*
X56950Y-52230D03*
X62000Y-57100D03*
G54D14*
X62950Y-53800D03*
X61050Y-53800D03*
G54D13*
X62950Y-52230D03*
X61050Y-52230D03*
X66100Y-57100D03*
G54D14*
X67050Y-53800D03*
X65150Y-53800D03*
G54D13*
X67050Y-52230D03*
X65150Y-52230D03*
X70200Y-57100D03*
G54D14*
X71150Y-53800D03*
X69250Y-53800D03*
G54D13*
X71150Y-52230D03*
X69250Y-52230D03*
G54D15*
X71450Y-47050D03*
G54D16*
X71450Y-46050D03*
X70450Y-47050D03*
X70450Y-46050D03*
X69450Y-47050D03*
X69450Y-46050D03*
X68450Y-47050D03*
X68450Y-46050D03*
X67450Y-47050D03*
X67450Y-46050D03*
X66450Y-47050D03*
X66450Y-46050D03*
X65450Y-47050D03*
X65450Y-46050D03*
X64450Y-47050D03*
X64450Y-46050D03*
G54D15*
X64450Y-38050D03*
G54D16*
X64450Y-39050D03*
X65450Y-38050D03*
X65450Y-39050D03*
X66450Y-38050D03*
X66450Y-39050D03*
X67450Y-38050D03*
X67450Y-39050D03*
X68450Y-38050D03*
X68450Y-39050D03*
X69450Y-38050D03*
X69450Y-39050D03*
X70450Y-38050D03*
X70450Y-39050D03*
X71450Y-38050D03*
X71450Y-39050D03*
G54D17*
X46500Y-47850D03*
X46500Y-37850D03*
X62000Y-37850D03*
X62000Y-47850D03*
X69500Y-42850D03*
M02*
