G04 (created by PCBNEW (2013-07-07 BZR 4022)-stable) date 3/14/2014 4:09:09 PM*
%MOIN*%
G04 Gerber Fmt 3.4, Leading zero omitted, Abs format*
%FSLAX34Y34*%
G01*
G70*
G90*
G04 APERTURE LIST*
%ADD10C,0.00590551*%
%ADD11R,0.025X0.045*%
%ADD12R,0.055X0.055*%
%ADD13C,0.055*%
%ADD14R,0.0314X0.0314*%
%ADD15C,0.083*%
%ADD16C,0.063*%
%ADD17R,0.0708661X0.0708661*%
%ADD18C,0.0708661*%
%ADD19C,0.16*%
%ADD20C,0.035*%
%ADD21C,0.025*%
%ADD22C,0.01*%
G04 APERTURE END LIST*
G54D10*
G54D11*
X62750Y-35500D03*
X63350Y-35500D03*
X58650Y-35500D03*
X59250Y-35500D03*
X66800Y-35500D03*
X67400Y-35500D03*
X46250Y-35500D03*
X46850Y-35500D03*
X61300Y-50500D03*
X60700Y-50500D03*
X49050Y-50500D03*
X48450Y-50500D03*
X44950Y-50500D03*
X44350Y-50500D03*
X50400Y-35500D03*
X51000Y-35500D03*
X65450Y-50500D03*
X64850Y-50500D03*
X70900Y-35500D03*
X71500Y-35500D03*
X47800Y-45500D03*
X48400Y-45500D03*
X45200Y-45500D03*
X45800Y-45500D03*
X46500Y-45500D03*
X47100Y-45500D03*
X54450Y-35500D03*
X55050Y-35500D03*
X69550Y-50500D03*
X68950Y-50500D03*
X40250Y-50500D03*
X40850Y-50500D03*
X53150Y-50500D03*
X52550Y-50500D03*
X42200Y-35500D03*
X42800Y-35500D03*
X57250Y-50500D03*
X56650Y-50500D03*
G54D12*
X40250Y-37500D03*
G54D13*
X40250Y-38500D03*
X40250Y-39500D03*
X40250Y-40500D03*
X40250Y-41500D03*
G54D14*
X40255Y-51200D03*
X40845Y-51200D03*
X55045Y-34750D03*
X54455Y-34750D03*
X50995Y-34750D03*
X50405Y-34750D03*
X67395Y-34750D03*
X66805Y-34750D03*
X56655Y-51250D03*
X57245Y-51250D03*
X71495Y-34750D03*
X70905Y-34750D03*
X44355Y-51250D03*
X44945Y-51250D03*
X68955Y-51250D03*
X69545Y-51250D03*
X52555Y-51250D03*
X53145Y-51250D03*
X42795Y-34750D03*
X42205Y-34750D03*
X59245Y-34750D03*
X58655Y-34750D03*
X64855Y-51250D03*
X65445Y-51250D03*
X48455Y-51250D03*
X49045Y-51250D03*
X46845Y-34750D03*
X46255Y-34750D03*
X63345Y-34750D03*
X62755Y-34750D03*
X60705Y-51250D03*
X61295Y-51250D03*
G54D12*
X41150Y-45500D03*
G54D13*
X41150Y-46500D03*
X41150Y-47500D03*
X44150Y-47500D03*
X44150Y-46500D03*
X44150Y-45500D03*
X57400Y-41500D03*
X56400Y-41500D03*
X55400Y-41500D03*
X54400Y-41500D03*
X53400Y-41500D03*
X52400Y-41500D03*
X51400Y-41500D03*
X50400Y-41500D03*
X49400Y-41500D03*
X48400Y-41500D03*
X47400Y-41500D03*
X46400Y-41500D03*
X45400Y-41500D03*
G54D12*
X58400Y-41500D03*
G54D13*
X45400Y-44500D03*
X46400Y-44500D03*
X47400Y-44500D03*
X48400Y-44500D03*
X49400Y-44500D03*
X50400Y-44500D03*
X51400Y-44500D03*
X52400Y-44500D03*
X53400Y-44500D03*
X54400Y-44500D03*
X55400Y-44500D03*
X56400Y-44500D03*
X57400Y-44500D03*
X58400Y-44500D03*
G54D12*
X51400Y-40500D03*
G54D13*
X52400Y-40500D03*
X53400Y-40500D03*
X54400Y-40500D03*
X55400Y-40500D03*
X56400Y-40500D03*
X57400Y-40500D03*
X58400Y-40500D03*
X59400Y-40500D03*
X59400Y-37500D03*
X58400Y-37500D03*
X57400Y-37500D03*
X56400Y-37500D03*
X55400Y-37500D03*
X54400Y-37500D03*
X53400Y-37500D03*
X52400Y-37500D03*
X51400Y-37500D03*
G54D12*
X58400Y-45500D03*
G54D13*
X57400Y-45500D03*
X56400Y-45500D03*
X55400Y-45500D03*
X54400Y-45500D03*
X53400Y-45500D03*
X52400Y-45500D03*
X51400Y-45500D03*
X50400Y-45500D03*
X50400Y-48500D03*
X51400Y-48500D03*
X52400Y-48500D03*
X53400Y-48500D03*
X54400Y-48500D03*
X55400Y-48500D03*
X56400Y-48500D03*
X57400Y-48500D03*
X58400Y-48500D03*
X48650Y-39500D03*
X48650Y-38500D03*
G54D15*
X41500Y-28850D03*
G54D16*
X40550Y-32150D03*
X42450Y-32150D03*
G54D15*
X40550Y-33720D03*
X42450Y-33720D03*
X45600Y-28850D03*
G54D16*
X44650Y-32150D03*
X46550Y-32150D03*
G54D15*
X44650Y-33720D03*
X46550Y-33720D03*
X49700Y-28850D03*
G54D16*
X48750Y-32150D03*
X50650Y-32150D03*
G54D15*
X48750Y-33720D03*
X50650Y-33720D03*
X53800Y-28850D03*
G54D16*
X52850Y-32150D03*
X54750Y-32150D03*
G54D15*
X52850Y-33720D03*
X54750Y-33720D03*
X57900Y-28850D03*
G54D16*
X56950Y-32150D03*
X58850Y-32150D03*
G54D15*
X56950Y-33720D03*
X58850Y-33720D03*
X62000Y-28850D03*
G54D16*
X61050Y-32150D03*
X62950Y-32150D03*
G54D15*
X61050Y-33720D03*
X62950Y-33720D03*
X66100Y-28850D03*
G54D16*
X65150Y-32150D03*
X67050Y-32150D03*
G54D15*
X65150Y-33720D03*
X67050Y-33720D03*
X70200Y-28850D03*
G54D16*
X69250Y-32150D03*
X71150Y-32150D03*
G54D15*
X69250Y-33720D03*
X71150Y-33720D03*
X41500Y-57100D03*
G54D16*
X42450Y-53800D03*
X40550Y-53800D03*
G54D15*
X42450Y-52230D03*
X40550Y-52230D03*
X45600Y-57100D03*
G54D16*
X46550Y-53800D03*
X44650Y-53800D03*
G54D15*
X46550Y-52230D03*
X44650Y-52230D03*
X49700Y-57100D03*
G54D16*
X50650Y-53800D03*
X48750Y-53800D03*
G54D15*
X50650Y-52230D03*
X48750Y-52230D03*
X53800Y-57100D03*
G54D16*
X54750Y-53800D03*
X52850Y-53800D03*
G54D15*
X54750Y-52230D03*
X52850Y-52230D03*
X57900Y-57100D03*
G54D16*
X58850Y-53800D03*
X56950Y-53800D03*
G54D15*
X58850Y-52230D03*
X56950Y-52230D03*
X62000Y-57100D03*
G54D16*
X62950Y-53800D03*
X61050Y-53800D03*
G54D15*
X62950Y-52230D03*
X61050Y-52230D03*
X66100Y-57100D03*
G54D16*
X67050Y-53800D03*
X65150Y-53800D03*
G54D15*
X67050Y-52230D03*
X65150Y-52230D03*
X70200Y-57100D03*
G54D16*
X71150Y-53800D03*
X69250Y-53800D03*
G54D15*
X71150Y-52230D03*
X69250Y-52230D03*
G54D17*
X71450Y-47050D03*
G54D18*
X71450Y-46050D03*
X70450Y-47050D03*
X70450Y-46050D03*
X69450Y-47050D03*
X69450Y-46050D03*
X68450Y-47050D03*
X68450Y-46050D03*
X67450Y-47050D03*
X67450Y-46050D03*
X66450Y-47050D03*
X66450Y-46050D03*
X65450Y-47050D03*
X65450Y-46050D03*
X64450Y-47050D03*
X64450Y-46050D03*
G54D17*
X64450Y-38050D03*
G54D18*
X64450Y-39050D03*
X65450Y-38050D03*
X65450Y-39050D03*
X66450Y-38050D03*
X66450Y-39050D03*
X67450Y-38050D03*
X67450Y-39050D03*
X68450Y-38050D03*
X68450Y-39050D03*
X69450Y-38050D03*
X69450Y-39050D03*
X70450Y-38050D03*
X70450Y-39050D03*
X71450Y-38050D03*
X71450Y-39050D03*
G54D19*
X46500Y-47850D03*
X46500Y-37850D03*
X62000Y-37850D03*
X62000Y-47850D03*
X69500Y-42850D03*
G54D20*
X55540Y-35897D03*
X56805Y-35899D03*
X62132Y-31767D03*
X57431Y-35894D03*
X60325Y-31433D03*
X57709Y-35089D03*
X62349Y-54329D03*
X57116Y-49936D03*
G54D21*
X61380Y-53800D02*
X61050Y-53800D01*
X62950Y-52230D02*
X61380Y-53800D01*
X42120Y-32150D02*
X42450Y-32150D01*
X40550Y-33720D02*
X42120Y-32150D01*
X46220Y-32150D02*
X46550Y-32150D01*
X44650Y-33720D02*
X46220Y-32150D01*
X47180Y-32150D02*
X48750Y-33720D01*
X46550Y-32150D02*
X47180Y-32150D01*
X51280Y-32150D02*
X50650Y-32150D01*
X52850Y-33720D02*
X51280Y-32150D01*
X49080Y-33720D02*
X48750Y-33720D01*
X50650Y-32150D02*
X49080Y-33720D01*
X65150Y-33352D02*
X65150Y-33720D01*
X63947Y-32150D02*
X65150Y-33352D01*
X62950Y-32150D02*
X63947Y-32150D01*
X65847Y-33352D02*
X67050Y-32150D01*
X65150Y-33352D02*
X65847Y-33352D01*
X69250Y-33720D02*
X69250Y-33262D01*
X70362Y-32150D02*
X69250Y-33262D01*
X71150Y-32150D02*
X70362Y-32150D01*
X68162Y-33262D02*
X67050Y-32150D01*
X69250Y-33262D02*
X68162Y-33262D01*
X69580Y-53800D02*
X69250Y-53800D01*
X71150Y-52230D02*
X69580Y-53800D01*
X67680Y-52230D02*
X67050Y-52230D01*
X69250Y-53800D02*
X67680Y-52230D01*
X65480Y-53800D02*
X65150Y-53800D01*
X67050Y-52230D02*
X65480Y-53800D01*
X44980Y-53800D02*
X44650Y-53800D01*
X46550Y-52230D02*
X44980Y-53800D01*
X43080Y-52230D02*
X42450Y-52230D01*
X44650Y-53800D02*
X43080Y-52230D01*
X40880Y-53800D02*
X40550Y-53800D01*
X42450Y-52230D02*
X40880Y-53800D01*
X59480Y-32150D02*
X61050Y-33720D01*
X58850Y-32150D02*
X59480Y-32150D01*
X55380Y-32150D02*
X54750Y-32150D01*
X56950Y-33720D02*
X55380Y-32150D01*
X56992Y-33720D02*
X56950Y-33720D01*
X58222Y-34950D02*
X56992Y-33720D01*
X58222Y-36322D02*
X58222Y-34950D01*
X59400Y-37500D02*
X58222Y-36322D01*
X58520Y-52230D02*
X56950Y-53800D01*
X58850Y-52230D02*
X58520Y-52230D01*
X53180Y-53800D02*
X52850Y-53800D01*
X54750Y-52230D02*
X53180Y-53800D01*
X71450Y-39050D02*
X70450Y-39050D01*
X70450Y-39050D02*
X69450Y-39050D01*
X69450Y-39050D02*
X68450Y-39050D01*
X68450Y-39050D02*
X67450Y-39050D01*
X67450Y-39050D02*
X66450Y-39050D01*
X66450Y-39050D02*
X65450Y-39050D01*
X65450Y-39050D02*
X64450Y-39050D01*
X64450Y-46050D02*
X65450Y-46050D01*
X65450Y-46050D02*
X66450Y-46050D01*
X66450Y-46050D02*
X67450Y-46050D01*
X69450Y-46050D02*
X70450Y-46050D01*
X70450Y-46050D02*
X71450Y-46050D01*
X40678Y-38928D02*
X40250Y-38500D01*
X48221Y-38928D02*
X40678Y-38928D01*
X48650Y-38500D02*
X48221Y-38928D01*
X67450Y-46050D02*
X68450Y-46050D01*
X68450Y-46050D02*
X69450Y-46050D01*
X49149Y-46750D02*
X50400Y-45500D01*
X45849Y-46750D02*
X49149Y-46750D01*
X44549Y-48050D02*
X45849Y-46750D01*
X41700Y-48050D02*
X44549Y-48050D01*
X41150Y-47500D02*
X41700Y-48050D01*
G54D22*
X45200Y-44700D02*
X45200Y-45500D01*
X45400Y-44500D02*
X45200Y-44700D01*
X45200Y-45500D02*
X44150Y-45500D01*
X46400Y-44500D02*
X46400Y-45106D01*
X46418Y-45124D02*
X46400Y-45106D01*
X46500Y-45124D02*
X46418Y-45124D01*
X44793Y-46500D02*
X44150Y-46500D01*
X45500Y-45793D02*
X44793Y-46500D01*
X45500Y-45222D02*
X45500Y-45793D01*
X45616Y-45106D02*
X45500Y-45222D01*
X46400Y-45106D02*
X45616Y-45106D01*
X46500Y-45500D02*
X46500Y-45124D01*
X47800Y-44900D02*
X47800Y-45500D01*
X47400Y-44500D02*
X47800Y-44900D01*
X50405Y-33965D02*
X50405Y-34750D01*
X50650Y-33720D02*
X50405Y-33965D01*
X50995Y-35119D02*
X51000Y-35124D01*
X50995Y-34750D02*
X50995Y-35119D01*
X51000Y-35500D02*
X51000Y-35124D01*
X66805Y-33965D02*
X66805Y-34750D01*
X67050Y-33720D02*
X66805Y-33965D01*
X67395Y-35119D02*
X67400Y-35124D01*
X67395Y-34750D02*
X67395Y-35119D01*
X67400Y-35500D02*
X67400Y-35124D01*
X61295Y-51985D02*
X61295Y-51250D01*
X61050Y-52230D02*
X61295Y-51985D01*
X60705Y-50880D02*
X60700Y-50875D01*
X60705Y-51250D02*
X60705Y-50880D01*
X60700Y-50500D02*
X60700Y-50875D01*
X44945Y-51935D02*
X44945Y-51250D01*
X44650Y-52230D02*
X44945Y-51935D01*
X44355Y-50880D02*
X44350Y-50875D01*
X44355Y-51250D02*
X44355Y-50880D01*
X44350Y-50500D02*
X44350Y-50875D01*
X54455Y-34015D02*
X54455Y-34750D01*
X54750Y-33720D02*
X54455Y-34015D01*
X55045Y-35119D02*
X55050Y-35124D01*
X55045Y-34750D02*
X55045Y-35119D01*
X55050Y-35500D02*
X55050Y-35124D01*
X70905Y-33965D02*
X70905Y-34750D01*
X71150Y-33720D02*
X70905Y-33965D01*
X71495Y-35119D02*
X71500Y-35124D01*
X71495Y-34750D02*
X71495Y-35119D01*
X71500Y-35500D02*
X71500Y-35124D01*
X57245Y-51935D02*
X57245Y-51250D01*
X56950Y-52230D02*
X57245Y-51935D01*
X56655Y-50880D02*
X56650Y-50875D01*
X56655Y-51250D02*
X56655Y-50880D01*
X56650Y-50500D02*
X56650Y-50875D01*
X40845Y-51935D02*
X40845Y-51200D01*
X40550Y-52230D02*
X40845Y-51935D01*
X40574Y-50775D02*
X40574Y-50500D01*
X40457Y-50892D02*
X40574Y-50775D01*
X40255Y-50892D02*
X40457Y-50892D01*
X40255Y-51200D02*
X40255Y-50892D01*
X40850Y-50500D02*
X40574Y-50500D01*
X42205Y-33965D02*
X42205Y-34750D01*
X42450Y-33720D02*
X42205Y-33965D01*
X42795Y-35119D02*
X42800Y-35124D01*
X42795Y-34750D02*
X42795Y-35119D01*
X42800Y-35500D02*
X42800Y-35124D01*
X58655Y-33915D02*
X58655Y-34750D01*
X58850Y-33720D02*
X58655Y-33915D01*
X59245Y-35119D02*
X59250Y-35124D01*
X59245Y-34750D02*
X59245Y-35119D01*
X59250Y-35500D02*
X59250Y-35124D01*
X69545Y-51935D02*
X69545Y-51250D01*
X69250Y-52230D02*
X69545Y-51935D01*
X68955Y-50880D02*
X68950Y-50875D01*
X68955Y-51250D02*
X68955Y-50880D01*
X68950Y-50500D02*
X68950Y-50875D01*
X53145Y-51935D02*
X53145Y-51250D01*
X52850Y-52230D02*
X53145Y-51935D01*
X52555Y-50880D02*
X52550Y-50875D01*
X52555Y-51250D02*
X52555Y-50880D01*
X52550Y-50500D02*
X52550Y-50875D01*
X46255Y-34015D02*
X46255Y-34750D01*
X46550Y-33720D02*
X46255Y-34015D01*
X46845Y-35119D02*
X46850Y-35124D01*
X46845Y-34750D02*
X46845Y-35119D01*
X46850Y-35500D02*
X46850Y-35124D01*
X62755Y-33915D02*
X62755Y-34750D01*
X62950Y-33720D02*
X62755Y-33915D01*
X63345Y-35119D02*
X63350Y-35124D01*
X63345Y-34750D02*
X63345Y-35119D01*
X63350Y-35500D02*
X63350Y-35124D01*
X65445Y-51935D02*
X65445Y-51250D01*
X65150Y-52230D02*
X65445Y-51935D01*
X64855Y-50880D02*
X64850Y-50875D01*
X64855Y-51250D02*
X64855Y-50880D01*
X64850Y-50500D02*
X64850Y-50875D01*
X49045Y-51935D02*
X49045Y-51250D01*
X48750Y-52230D02*
X49045Y-51935D01*
X48455Y-50880D02*
X48450Y-50875D01*
X48455Y-51250D02*
X48455Y-50880D01*
X48450Y-50500D02*
X48450Y-50875D01*
X61424Y-45475D02*
X58400Y-48500D01*
X71675Y-45475D02*
X61424Y-45475D01*
X72021Y-45820D02*
X71675Y-45475D01*
X72021Y-52928D02*
X72021Y-45820D01*
X71150Y-53800D02*
X72021Y-52928D01*
X53466Y-37433D02*
X53400Y-37500D01*
X53466Y-33457D02*
X53466Y-37433D01*
X51643Y-31634D02*
X53466Y-33457D01*
X49265Y-31634D02*
X51643Y-31634D01*
X48750Y-32150D02*
X49265Y-31634D01*
X53835Y-36935D02*
X54400Y-37500D01*
X53835Y-33135D02*
X53835Y-36935D01*
X52850Y-32150D02*
X53835Y-33135D01*
X55540Y-37359D02*
X55400Y-37500D01*
X55540Y-35897D02*
X55540Y-37359D01*
X56400Y-36304D02*
X56805Y-35899D01*
X56400Y-37500D02*
X56400Y-36304D01*
X57400Y-35926D02*
X57431Y-35894D01*
X57400Y-37500D02*
X57400Y-35926D01*
X62265Y-31634D02*
X62132Y-31767D01*
X64634Y-31634D02*
X62265Y-31634D01*
X65150Y-32150D02*
X64634Y-31634D01*
X68533Y-31433D02*
X60325Y-31433D01*
X69250Y-32150D02*
X68533Y-31433D01*
X57763Y-36863D02*
X58400Y-37500D01*
X57763Y-35143D02*
X57763Y-36863D01*
X57709Y-35089D02*
X57763Y-35143D01*
X66520Y-54329D02*
X62349Y-54329D01*
X67050Y-53800D02*
X66520Y-54329D01*
X53400Y-48953D02*
X53400Y-48500D01*
X52027Y-50326D02*
X53400Y-48953D01*
X52027Y-52422D02*
X52027Y-50326D01*
X50650Y-53800D02*
X52027Y-52422D01*
X52400Y-49381D02*
X52400Y-48500D01*
X47981Y-53800D02*
X52400Y-49381D01*
X46550Y-53800D02*
X47981Y-53800D01*
G54D21*
X65718Y-37318D02*
X66450Y-38050D01*
X63259Y-37318D02*
X65718Y-37318D01*
X61271Y-35330D02*
X63259Y-37318D01*
X61271Y-35157D02*
X61271Y-35330D01*
X58978Y-32865D02*
X61271Y-35157D01*
X56830Y-32865D02*
X58978Y-32865D01*
X52815Y-28850D02*
X56830Y-32865D01*
X49700Y-28850D02*
X52815Y-28850D01*
X65554Y-36154D02*
X67450Y-38050D01*
X62661Y-36154D02*
X65554Y-36154D01*
X61741Y-35234D02*
X62661Y-36154D01*
X61741Y-33427D02*
X61741Y-35234D01*
X61178Y-32865D02*
X61741Y-33427D01*
X60930Y-32865D02*
X61178Y-32865D01*
X56915Y-28850D02*
X60930Y-32865D01*
X53800Y-28850D02*
X56915Y-28850D01*
X54883Y-56016D02*
X53800Y-57100D01*
X59876Y-56016D02*
X54883Y-56016D01*
X62808Y-53084D02*
X59876Y-56016D01*
X65301Y-53084D02*
X62808Y-53084D01*
X66100Y-52286D02*
X65301Y-53084D01*
X66100Y-52176D02*
X66100Y-52286D01*
X66750Y-51526D02*
X66100Y-52176D01*
X67542Y-51526D02*
X66750Y-51526D01*
X68948Y-52932D02*
X67542Y-51526D01*
X69546Y-52932D02*
X68948Y-52932D01*
X69986Y-52493D02*
X69546Y-52932D01*
X69986Y-49586D02*
X69986Y-52493D01*
X67450Y-47050D02*
X69986Y-49586D01*
X52285Y-57100D02*
X49700Y-57100D01*
X56207Y-53177D02*
X52285Y-57100D01*
X56207Y-50193D02*
X56207Y-53177D01*
X56915Y-49486D02*
X56207Y-50193D01*
X64013Y-49486D02*
X56915Y-49486D01*
X66450Y-47050D02*
X64013Y-49486D01*
X43093Y-55506D02*
X41500Y-57100D01*
X50283Y-55506D02*
X43093Y-55506D01*
X52704Y-53084D02*
X50283Y-55506D01*
X52971Y-53084D02*
X52704Y-53084D01*
X53544Y-52511D02*
X52971Y-53084D01*
X53544Y-52269D02*
X53544Y-52511D01*
X56734Y-49079D02*
X53544Y-52269D01*
X62420Y-49079D02*
X56734Y-49079D01*
X64450Y-47050D02*
X62420Y-49079D01*
G54D22*
X40684Y-41934D02*
X40250Y-41500D01*
X46965Y-41934D02*
X40684Y-41934D01*
X47400Y-41500D02*
X46965Y-41934D01*
X45400Y-40500D02*
X40250Y-40500D01*
X46400Y-41500D02*
X45400Y-40500D01*
X62750Y-35500D02*
X62474Y-35500D01*
X44674Y-50259D02*
X44674Y-50500D01*
X44540Y-50124D02*
X44674Y-50259D01*
X40625Y-50124D02*
X44540Y-50124D01*
X40250Y-50500D02*
X40625Y-50124D01*
X44812Y-50500D02*
X44674Y-50500D01*
X49050Y-50500D02*
X49325Y-50500D01*
X44812Y-50500D02*
X44950Y-50500D01*
X48774Y-50259D02*
X48774Y-50500D01*
X48640Y-50124D02*
X48774Y-50259D01*
X45600Y-50124D02*
X48640Y-50124D01*
X45225Y-50500D02*
X45600Y-50124D01*
X44950Y-50500D02*
X45225Y-50500D01*
X49050Y-50500D02*
X48774Y-50500D01*
X65973Y-35500D02*
X66800Y-35500D01*
X63619Y-33146D02*
X65973Y-35500D01*
X62722Y-33146D02*
X63619Y-33146D01*
X62381Y-33486D02*
X62722Y-33146D01*
X62381Y-35406D02*
X62381Y-33486D01*
X62474Y-35500D02*
X62381Y-35406D01*
X48400Y-45500D02*
X48124Y-45500D01*
X47100Y-45500D02*
X47375Y-45500D01*
X45800Y-45500D02*
X46075Y-45500D01*
X46075Y-45637D02*
X46075Y-45500D01*
X46312Y-45875D02*
X46075Y-45637D01*
X47137Y-45875D02*
X46312Y-45875D01*
X47375Y-45637D02*
X47137Y-45875D01*
X47612Y-45875D02*
X47375Y-45637D01*
X47990Y-45875D02*
X47612Y-45875D01*
X48124Y-45740D02*
X47990Y-45875D01*
X48124Y-45500D02*
X48124Y-45740D01*
X47375Y-45637D02*
X47375Y-45500D01*
X50400Y-35500D02*
X50124Y-35500D01*
X46250Y-35500D02*
X46525Y-35500D01*
X46525Y-35740D02*
X46525Y-35500D01*
X46666Y-35882D02*
X46525Y-35740D01*
X50124Y-35882D02*
X46666Y-35882D01*
X50124Y-35882D02*
X50124Y-35500D01*
X46250Y-35500D02*
X45974Y-35500D01*
X39763Y-39013D02*
X40250Y-39500D01*
X39763Y-37209D02*
X39763Y-39013D01*
X41472Y-35500D02*
X39763Y-37209D01*
X42200Y-35500D02*
X41472Y-35500D01*
X45599Y-35875D02*
X45974Y-35500D01*
X42609Y-35875D02*
X45599Y-35875D01*
X42475Y-35740D02*
X42609Y-35875D01*
X42475Y-35500D02*
X42475Y-35740D01*
X42200Y-35500D02*
X42475Y-35500D01*
X50124Y-37987D02*
X50124Y-35882D01*
X54450Y-35500D02*
X54725Y-35500D01*
X58650Y-35500D02*
X58925Y-35500D01*
X54725Y-35775D02*
X54725Y-35500D01*
X54834Y-35884D02*
X54725Y-35775D01*
X54834Y-37987D02*
X54834Y-35884D01*
X50124Y-37987D02*
X54834Y-37987D01*
X70900Y-35500D02*
X70624Y-35500D01*
X66800Y-35500D02*
X67075Y-35500D01*
X70624Y-35500D02*
X70249Y-35875D01*
X67209Y-35875D02*
X70249Y-35875D01*
X67075Y-35740D02*
X67209Y-35875D01*
X67075Y-35500D02*
X67075Y-35740D01*
X61812Y-39611D02*
X59895Y-37695D01*
X71676Y-39611D02*
X61812Y-39611D01*
X72011Y-39276D02*
X71676Y-39611D01*
X72011Y-37637D02*
X72011Y-39276D01*
X70249Y-35875D02*
X72011Y-37637D01*
X59603Y-37987D02*
X59895Y-37695D01*
X54834Y-37987D02*
X59603Y-37987D01*
X58925Y-35775D02*
X58925Y-35500D01*
X59895Y-36745D02*
X58925Y-35775D01*
X59895Y-37695D02*
X59895Y-36745D01*
X50124Y-38025D02*
X50124Y-37987D01*
X48650Y-39500D02*
X50124Y-38025D01*
X50400Y-41250D02*
X50400Y-41500D01*
X48650Y-39500D02*
X50400Y-41250D01*
X53150Y-50500D02*
X53425Y-50500D01*
X65174Y-50259D02*
X65174Y-50500D01*
X65020Y-50105D02*
X65174Y-50259D01*
X61970Y-50105D02*
X65020Y-50105D01*
X61575Y-50500D02*
X61970Y-50105D01*
X61300Y-50500D02*
X61575Y-50500D01*
X65450Y-50500D02*
X65174Y-50500D01*
X66100Y-50124D02*
X65725Y-50500D01*
X69140Y-50124D02*
X66100Y-50124D01*
X69274Y-50259D02*
X69140Y-50124D01*
X69274Y-50500D02*
X69274Y-50259D01*
X69550Y-50500D02*
X69274Y-50500D01*
X65450Y-50500D02*
X65725Y-50500D01*
X48400Y-45500D02*
X48675Y-45500D01*
X53569Y-48058D02*
X52228Y-48058D01*
X53829Y-48318D02*
X53569Y-48058D01*
X53829Y-50095D02*
X53829Y-48318D01*
X53425Y-50500D02*
X53829Y-50095D01*
X50020Y-50500D02*
X49325Y-50500D01*
X51900Y-48620D02*
X50020Y-50500D01*
X51900Y-48387D02*
X51900Y-48620D01*
X52228Y-48058D02*
X51900Y-48387D01*
X48400Y-44500D02*
X49037Y-45137D01*
X49152Y-45022D02*
X49037Y-45137D01*
X50598Y-45022D02*
X49152Y-45022D01*
X50885Y-45310D02*
X50598Y-45022D01*
X50885Y-46715D02*
X50885Y-45310D01*
X52228Y-48058D02*
X50885Y-46715D01*
X49037Y-45137D02*
X48675Y-45500D01*
X61300Y-50500D02*
X61024Y-50500D01*
X57250Y-50069D02*
X57250Y-50122D01*
X57116Y-49936D02*
X57250Y-50069D01*
X60887Y-50122D02*
X57250Y-50122D01*
X61024Y-50259D02*
X60887Y-50122D01*
X61024Y-50500D02*
X61024Y-50259D01*
X57250Y-50122D02*
X57250Y-50500D01*
M02*
