M48
;DRILL file {Pcbnew (2013-07-07 BZR 4022)-stable} date 3/14/2014 4:05:44 PM
;FORMAT={2:4/ absolute / inch / keep zeros}
FMAT,2
INCH,TZ
T1C0.025
T2C0.032
T3C0.039
T4C0.043
T5C0.063
T6C0.120
%
G90
G05
M72
T1
X055541Y-035897
X056805Y-035899
X057116Y-049936
X057431Y-035895
X057710Y-035090
X060325Y-031434
X062133Y-031767
X062350Y-054329
T2
X040250Y-037500
X040250Y-038500
X040250Y-039500
X040250Y-040500
X040250Y-041500
X041150Y-045500
X041150Y-046500
X041150Y-047500
X044150Y-045500
X044150Y-046500
X044150Y-047500
X045400Y-041500
X045400Y-044500
X046400Y-041500
X046400Y-044500
X047400Y-041500
X047400Y-044500
X048400Y-041500
X048400Y-044500
X048650Y-038500
X048650Y-039500
X049400Y-041500
X049400Y-044500
X050400Y-041500
X050400Y-044500
X050400Y-045500
X050400Y-048500
X051400Y-037500
X051400Y-040500
X051400Y-041500
X051400Y-044500
X051400Y-045500
X051400Y-048500
X052400Y-037500
X052400Y-040500
X052400Y-041500
X052400Y-044500
X052400Y-045500
X052400Y-048500
X053400Y-037500
X053400Y-040500
X053400Y-041500
X053400Y-044500
X053400Y-045500
X053400Y-048500
X054400Y-037500
X054400Y-040500
X054400Y-041500
X054400Y-044500
X054400Y-045500
X054400Y-048500
X055400Y-037500
X055400Y-040500
X055400Y-041500
X055400Y-044500
X055400Y-045500
X055400Y-048500
X056400Y-037500
X056400Y-040500
X056400Y-041500
X056400Y-044500
X056400Y-045500
X056400Y-048500
X057400Y-037500
X057400Y-040500
X057400Y-041500
X057400Y-044500
X057400Y-045500
X057400Y-048500
X058400Y-037500
X058400Y-040500
X058400Y-041500
X058400Y-044500
X058400Y-045500
X058400Y-048500
X059400Y-037500
X059400Y-040500
T3
X064450Y-038050
X064450Y-039050
X064450Y-046050
X064450Y-047050
X065450Y-038050
X065450Y-039050
X065450Y-046050
X065450Y-047050
X066450Y-038050
X066450Y-039050
X066450Y-046050
X066450Y-047050
X067450Y-038050
X067450Y-039050
X067450Y-046050
X067450Y-047050
X068450Y-038050
X068450Y-039050
X068450Y-046050
X068450Y-047050
X069450Y-038050
X069450Y-039050
X069450Y-046050
X069450Y-047050
X070450Y-038050
X070450Y-039050
X070450Y-046050
X070450Y-047050
X071450Y-038050
X071450Y-039050
X071450Y-046050
X071450Y-047050
T4
X040550Y-032150
X040550Y-053800
X042450Y-032150
X042450Y-053800
X044650Y-032150
X044650Y-053800
X046550Y-032150
X046550Y-053800
X048750Y-032150
X048750Y-053800
X050650Y-032150
X050650Y-053800
X052850Y-032150
X052850Y-053800
X054750Y-032150
X054750Y-053800
X056950Y-032150
X056950Y-053800
X058850Y-032150
X058850Y-053800
X061050Y-032150
X061050Y-053800
X062950Y-032150
X062950Y-053800
X065150Y-032150
X065150Y-053800
X067050Y-032150
X067050Y-053800
X069250Y-032150
X069250Y-053800
X071150Y-032150
X071150Y-053800
T5
X040550Y-033720
X040550Y-052230
X041500Y-028850
X041500Y-057100
X042450Y-033720
X042450Y-052230
X044650Y-033720
X044650Y-052230
X045600Y-028850
X045600Y-057100
X046550Y-033720
X046550Y-052230
X048750Y-033720
X048750Y-052230
X049700Y-028850
X049700Y-057100
X050650Y-033720
X050650Y-052230
X052850Y-033720
X052850Y-052230
X053800Y-028850
X053800Y-057100
X054750Y-033720
X054750Y-052230
X056950Y-033720
X056950Y-052230
X057900Y-028850
X057900Y-057100
X058850Y-033720
X058850Y-052230
X061050Y-033720
X061050Y-052230
X062000Y-028850
X062000Y-057100
X062950Y-033720
X062950Y-052230
X065150Y-033720
X065150Y-052230
X066100Y-028850
X066100Y-057100
X067050Y-033720
X067050Y-052230
X069250Y-033720
X069250Y-052230
X070200Y-028850
X070200Y-057100
X071150Y-033720
X071150Y-052230
T6
X046500Y-037850
X046500Y-047850
X062000Y-037850
X062000Y-047850
X069500Y-042850
T0
M30
