M48
;DRILL file {Pcbnew (2013-07-07 BZR 4022)-stable} date 3/14/2014 11:32:49 AM
;FORMAT={2:4/ absolute / inch / keep zeros}
FMAT,2
INCH,TZ
T1C0.032
T2C0.039
%
G90
G05
M72
T1
X079900Y-069300
X080950Y-066950
X080950Y-067950
X081650Y-082500
X082250Y-080450
X082650Y-082500
X082900Y-069300
X083250Y-080450
X084350Y-075950
X084400Y-073700
X084650Y-078300
X084650Y-079500
X085350Y-075950
X085400Y-073700
X085650Y-078300
X085650Y-079500
X086900Y-082400
X087900Y-082400
T2
X080250Y-078450
X080250Y-079450
X080250Y-080450
X080250Y-081450
X080250Y-082450
X082900Y-064750
X082900Y-065750
X082900Y-083750
X082900Y-084750
X083900Y-064750
X083900Y-065750
X083900Y-083750
X083900Y-084750
X084900Y-064750
X084900Y-065750
X084900Y-083750
X084900Y-084750
X085900Y-064750
X085900Y-065750
X085900Y-083750
X085900Y-084750
X086900Y-064750
X086900Y-065750
X086900Y-083750
X086900Y-084750
X087900Y-064750
X087900Y-065750
X087900Y-071450
X087900Y-072750
X087900Y-074050
X087900Y-075350
X087900Y-076650
X087900Y-077950
X087900Y-083750
X087900Y-084750
X088900Y-064750
X088900Y-065750
X088900Y-071450
X088900Y-072750
X088900Y-074050
X088900Y-075350
X088900Y-076650
X088900Y-077950
X088900Y-083750
X088900Y-084750
X089900Y-064750
X089900Y-065750
X089900Y-071450
X089900Y-072750
X089900Y-074050
X089900Y-075350
X089900Y-076650
X089900Y-077950
X089900Y-083750
X089900Y-084750
X090900Y-064750
X090900Y-065750
X090900Y-071450
X090900Y-072750
X090900Y-074050
X090900Y-075350
X090900Y-076650
X090900Y-077950
X090900Y-083750
X090900Y-084750
X091900Y-064750
X091900Y-065750
X091900Y-071450
X091900Y-072750
X091900Y-074050
X091900Y-075350
X091900Y-076650
X091900Y-077950
X091900Y-083750
X091900Y-084750
T0
M30
