G04 (created by PCBNEW (2013-07-07 BZR 4022)-stable) date 3/14/2014 11:35:05 AM*
%MOIN*%
G04 Gerber Fmt 3.4, Leading zero omitted, Abs format*
%FSLAX34Y34*%
G01*
G70*
G90*
G04 APERTURE LIST*
%ADD10C,0.00590551*%
%ADD11C,0.011811*%
%ADD12C,0.01*%
%ADD13C,0.005*%
%ADD14C,0.012*%
%ADD15C,0.00787402*%
%ADD16C,0.008*%
%ADD17C,0.003*%
%ADD18C,0.006*%
%ADD19C,0.01125*%
%ADD20C,0.0035*%
G04 APERTURE END LIST*
G54D10*
G54D11*
X83978Y-80810D02*
X84062Y-80839D01*
X84203Y-80839D01*
X84259Y-80810D01*
X84287Y-80782D01*
X84315Y-80726D01*
X84315Y-80670D01*
X84287Y-80614D01*
X84259Y-80585D01*
X84203Y-80557D01*
X84090Y-80529D01*
X84034Y-80501D01*
X84006Y-80473D01*
X83978Y-80417D01*
X83978Y-80360D01*
X84006Y-80304D01*
X84034Y-80276D01*
X84090Y-80248D01*
X84231Y-80248D01*
X84315Y-80276D01*
X84512Y-80248D02*
X84653Y-80839D01*
X84765Y-80417D01*
X84878Y-80839D01*
X85018Y-80248D01*
X85187Y-80248D02*
X85553Y-80248D01*
X85356Y-80473D01*
X85440Y-80473D01*
X85496Y-80501D01*
X85524Y-80529D01*
X85553Y-80585D01*
X85553Y-80726D01*
X85524Y-80782D01*
X85496Y-80810D01*
X85440Y-80839D01*
X85271Y-80839D01*
X85215Y-80810D01*
X85187Y-80782D01*
X85721Y-80248D02*
X85918Y-80839D01*
X86115Y-80248D01*
X86256Y-80248D02*
X86621Y-80248D01*
X86424Y-80473D01*
X86509Y-80473D01*
X86565Y-80501D01*
X86593Y-80529D01*
X86621Y-80585D01*
X86621Y-80726D01*
X86593Y-80782D01*
X86565Y-80810D01*
X86509Y-80839D01*
X86340Y-80839D01*
X86284Y-80810D01*
X86256Y-80782D01*
G54D12*
X83430Y-82702D02*
X83430Y-82202D01*
X83621Y-82202D01*
X83669Y-82226D01*
X83692Y-82250D01*
X83716Y-82297D01*
X83716Y-82369D01*
X83692Y-82416D01*
X83669Y-82440D01*
X83621Y-82464D01*
X83430Y-82464D01*
X83907Y-82678D02*
X83978Y-82702D01*
X84097Y-82702D01*
X84145Y-82678D01*
X84169Y-82654D01*
X84192Y-82607D01*
X84192Y-82559D01*
X84169Y-82511D01*
X84145Y-82488D01*
X84097Y-82464D01*
X84002Y-82440D01*
X83954Y-82416D01*
X83930Y-82392D01*
X83907Y-82345D01*
X83907Y-82297D01*
X83930Y-82250D01*
X83954Y-82226D01*
X84002Y-82202D01*
X84121Y-82202D01*
X84192Y-82226D01*
X88850Y-82340D02*
X88921Y-82364D01*
X88945Y-82388D01*
X88969Y-82435D01*
X88969Y-82507D01*
X88945Y-82554D01*
X88921Y-82578D01*
X88873Y-82602D01*
X88683Y-82602D01*
X88683Y-82102D01*
X88850Y-82102D01*
X88897Y-82126D01*
X88921Y-82150D01*
X88945Y-82197D01*
X88945Y-82245D01*
X88921Y-82292D01*
X88897Y-82316D01*
X88850Y-82340D01*
X88683Y-82340D01*
X89350Y-82340D02*
X89421Y-82364D01*
X89445Y-82388D01*
X89469Y-82435D01*
X89469Y-82507D01*
X89445Y-82554D01*
X89421Y-82578D01*
X89373Y-82602D01*
X89183Y-82602D01*
X89183Y-82102D01*
X89350Y-82102D01*
X89397Y-82126D01*
X89421Y-82150D01*
X89445Y-82197D01*
X89445Y-82245D01*
X89421Y-82292D01*
X89397Y-82316D01*
X89350Y-82340D01*
X89183Y-82340D01*
X89683Y-82602D02*
X89683Y-82102D01*
X89873Y-82102D01*
X89921Y-82126D01*
X89945Y-82150D01*
X89969Y-82197D01*
X89969Y-82269D01*
X89945Y-82316D01*
X89921Y-82340D01*
X89873Y-82364D01*
X89683Y-82364D01*
X90135Y-82102D02*
X90254Y-82602D01*
X90350Y-82245D01*
X90445Y-82602D01*
X90564Y-82102D01*
X91040Y-82602D02*
X90873Y-82364D01*
X90754Y-82602D02*
X90754Y-82102D01*
X90945Y-82102D01*
X90992Y-82126D01*
X91016Y-82150D01*
X91040Y-82197D01*
X91040Y-82269D01*
X91016Y-82316D01*
X90992Y-82340D01*
X90945Y-82364D01*
X90754Y-82364D01*
X83711Y-72540D02*
X83878Y-72540D01*
X83950Y-72802D02*
X83711Y-72802D01*
X83711Y-72302D01*
X83950Y-72302D01*
X84521Y-72778D02*
X84592Y-72802D01*
X84711Y-72802D01*
X84759Y-72778D01*
X84783Y-72754D01*
X84807Y-72707D01*
X84807Y-72659D01*
X84783Y-72611D01*
X84759Y-72588D01*
X84711Y-72564D01*
X84616Y-72540D01*
X84569Y-72516D01*
X84545Y-72492D01*
X84521Y-72445D01*
X84521Y-72397D01*
X84545Y-72350D01*
X84569Y-72326D01*
X84616Y-72302D01*
X84735Y-72302D01*
X84807Y-72326D01*
X84950Y-72302D02*
X85235Y-72302D01*
X85092Y-72802D02*
X85092Y-72302D01*
X85497Y-72302D02*
X85592Y-72302D01*
X85640Y-72326D01*
X85688Y-72373D01*
X85711Y-72469D01*
X85711Y-72635D01*
X85688Y-72730D01*
X85640Y-72778D01*
X85592Y-72802D01*
X85497Y-72802D01*
X85450Y-72778D01*
X85402Y-72730D01*
X85378Y-72635D01*
X85378Y-72469D01*
X85402Y-72373D01*
X85450Y-72326D01*
X85497Y-72302D01*
X85926Y-72802D02*
X85926Y-72302D01*
X86116Y-72302D01*
X86164Y-72326D01*
X86188Y-72350D01*
X86211Y-72397D01*
X86211Y-72469D01*
X86188Y-72516D01*
X86164Y-72540D01*
X86116Y-72564D01*
X85926Y-72564D01*
G54D11*
X92010Y-70553D02*
X92039Y-70468D01*
X92039Y-70328D01*
X92010Y-70271D01*
X91982Y-70243D01*
X91926Y-70215D01*
X91870Y-70215D01*
X91814Y-70243D01*
X91785Y-70271D01*
X91757Y-70328D01*
X91729Y-70440D01*
X91701Y-70496D01*
X91673Y-70524D01*
X91617Y-70553D01*
X91560Y-70553D01*
X91504Y-70524D01*
X91476Y-70496D01*
X91448Y-70440D01*
X91448Y-70299D01*
X91476Y-70215D01*
X91982Y-69625D02*
X92010Y-69653D01*
X92039Y-69737D01*
X92039Y-69793D01*
X92010Y-69878D01*
X91954Y-69934D01*
X91898Y-69962D01*
X91785Y-69990D01*
X91701Y-69990D01*
X91589Y-69962D01*
X91532Y-69934D01*
X91476Y-69878D01*
X91448Y-69793D01*
X91448Y-69737D01*
X91476Y-69653D01*
X91504Y-69625D01*
X92039Y-69090D02*
X92039Y-69371D01*
X91448Y-69371D01*
X90960Y-70567D02*
X90989Y-70482D01*
X90989Y-70342D01*
X90960Y-70285D01*
X90932Y-70257D01*
X90876Y-70229D01*
X90820Y-70229D01*
X90764Y-70257D01*
X90735Y-70285D01*
X90707Y-70342D01*
X90679Y-70454D01*
X90651Y-70510D01*
X90623Y-70538D01*
X90567Y-70567D01*
X90510Y-70567D01*
X90454Y-70538D01*
X90426Y-70510D01*
X90398Y-70454D01*
X90398Y-70314D01*
X90426Y-70229D01*
X90989Y-69976D02*
X90398Y-69976D01*
X90398Y-69835D01*
X90426Y-69751D01*
X90482Y-69695D01*
X90539Y-69667D01*
X90651Y-69639D01*
X90735Y-69639D01*
X90848Y-69667D01*
X90904Y-69695D01*
X90960Y-69751D01*
X90989Y-69835D01*
X90989Y-69976D01*
X90820Y-69414D02*
X90820Y-69132D01*
X90989Y-69470D02*
X90398Y-69273D01*
X90989Y-69076D01*
X88476Y-70199D02*
X88448Y-70256D01*
X88448Y-70340D01*
X88476Y-70424D01*
X88532Y-70481D01*
X88589Y-70509D01*
X88701Y-70537D01*
X88785Y-70537D01*
X88898Y-70509D01*
X88954Y-70481D01*
X89010Y-70424D01*
X89039Y-70340D01*
X89039Y-70284D01*
X89010Y-70199D01*
X88982Y-70171D01*
X88785Y-70171D01*
X88785Y-70284D01*
X89039Y-69918D02*
X88448Y-69918D01*
X89039Y-69581D01*
X88448Y-69581D01*
X89039Y-69300D02*
X88448Y-69300D01*
X88448Y-69159D01*
X88476Y-69075D01*
X88532Y-69018D01*
X88589Y-68990D01*
X88701Y-68962D01*
X88785Y-68962D01*
X88898Y-68990D01*
X88954Y-69018D01*
X89010Y-69075D01*
X89039Y-69159D01*
X89039Y-69300D01*
X89498Y-70531D02*
X89498Y-70165D01*
X89723Y-70362D01*
X89723Y-70278D01*
X89751Y-70221D01*
X89779Y-70193D01*
X89835Y-70165D01*
X89976Y-70165D01*
X90032Y-70193D01*
X90060Y-70221D01*
X90089Y-70278D01*
X90089Y-70446D01*
X90060Y-70503D01*
X90032Y-70531D01*
X89498Y-69996D02*
X90089Y-69800D01*
X89498Y-69603D01*
X89498Y-69462D02*
X89498Y-69096D01*
X89723Y-69293D01*
X89723Y-69209D01*
X89751Y-69153D01*
X89779Y-69125D01*
X89835Y-69096D01*
X89976Y-69096D01*
X90032Y-69125D01*
X90060Y-69153D01*
X90089Y-69209D01*
X90089Y-69378D01*
X90060Y-69434D01*
X90032Y-69462D01*
X87939Y-70215D02*
X87939Y-70553D01*
X87939Y-70384D02*
X87348Y-70384D01*
X87432Y-70440D01*
X87489Y-70496D01*
X87517Y-70553D01*
X87404Y-69990D02*
X87376Y-69962D01*
X87348Y-69906D01*
X87348Y-69765D01*
X87376Y-69709D01*
X87404Y-69681D01*
X87460Y-69653D01*
X87517Y-69653D01*
X87601Y-69681D01*
X87939Y-70018D01*
X87939Y-69653D01*
X87348Y-69484D02*
X87939Y-69287D01*
X87348Y-69090D01*
X81003Y-80148D02*
X81368Y-80148D01*
X81171Y-80373D01*
X81256Y-80373D01*
X81312Y-80401D01*
X81340Y-80429D01*
X81368Y-80485D01*
X81368Y-80626D01*
X81340Y-80682D01*
X81312Y-80710D01*
X81256Y-80739D01*
X81087Y-80739D01*
X81031Y-80710D01*
X81003Y-80682D01*
X81340Y-79148D02*
X81059Y-79148D01*
X81031Y-79429D01*
X81059Y-79401D01*
X81115Y-79373D01*
X81256Y-79373D01*
X81312Y-79401D01*
X81340Y-79429D01*
X81368Y-79485D01*
X81368Y-79626D01*
X81340Y-79682D01*
X81312Y-79710D01*
X81256Y-79739D01*
X81115Y-79739D01*
X81059Y-79710D01*
X81031Y-79682D01*
X81334Y-78639D02*
X80996Y-78639D01*
X81165Y-78639D02*
X81165Y-78048D01*
X81109Y-78132D01*
X81053Y-78189D01*
X80996Y-78217D01*
X81559Y-78104D02*
X81587Y-78076D01*
X81643Y-78048D01*
X81784Y-78048D01*
X81840Y-78076D01*
X81868Y-78104D01*
X81896Y-78160D01*
X81896Y-78217D01*
X81868Y-78301D01*
X81531Y-78639D01*
X81896Y-78639D01*
X82065Y-78048D02*
X82262Y-78639D01*
X82459Y-78048D01*
X81450Y-81176D02*
X81393Y-81148D01*
X81309Y-81148D01*
X81225Y-81176D01*
X81168Y-81232D01*
X81140Y-81289D01*
X81112Y-81401D01*
X81112Y-81485D01*
X81140Y-81598D01*
X81168Y-81654D01*
X81225Y-81710D01*
X81309Y-81739D01*
X81365Y-81739D01*
X81450Y-81710D01*
X81478Y-81682D01*
X81478Y-81485D01*
X81365Y-81485D01*
X81731Y-81739D02*
X81731Y-81148D01*
X82068Y-81739D01*
X82068Y-81148D01*
X82349Y-81739D02*
X82349Y-81148D01*
X82490Y-81148D01*
X82574Y-81176D01*
X82631Y-81232D01*
X82659Y-81289D01*
X82687Y-81401D01*
X82687Y-81485D01*
X82659Y-81598D01*
X82631Y-81654D01*
X82574Y-81710D01*
X82490Y-81739D01*
X82349Y-81739D01*
G54D13*
X86100Y-75950D02*
G75*
G03X86100Y-75950I-1250J0D01*
G74*
G01*
G54D14*
X84170Y-77800D02*
X86150Y-77800D01*
X86150Y-77800D02*
X86150Y-78800D01*
X86150Y-78800D02*
X84150Y-78800D01*
X84150Y-78800D02*
X84150Y-77800D01*
X84150Y-78050D02*
X84400Y-77800D01*
X84170Y-79000D02*
X86150Y-79000D01*
X86150Y-79000D02*
X86150Y-80000D01*
X86150Y-80000D02*
X84150Y-80000D01*
X84150Y-80000D02*
X84150Y-79000D01*
X84150Y-79250D02*
X84400Y-79000D01*
X88400Y-81900D02*
X88400Y-82900D01*
X88400Y-82900D02*
X86400Y-82900D01*
X86400Y-82900D02*
X86400Y-81900D01*
X86400Y-81900D02*
X88400Y-81900D01*
X83150Y-82000D02*
X83150Y-83000D01*
X83150Y-83000D02*
X81150Y-83000D01*
X81150Y-83000D02*
X81150Y-82000D01*
X81150Y-82000D02*
X83150Y-82000D01*
X85900Y-73200D02*
X85900Y-74200D01*
X85900Y-74200D02*
X83900Y-74200D01*
X83900Y-74200D02*
X83900Y-73200D01*
X83900Y-73200D02*
X85900Y-73200D01*
G54D15*
X91150Y-85250D02*
X91400Y-85000D01*
X91400Y-85000D02*
X91650Y-85250D01*
X91650Y-85250D02*
X92150Y-85250D01*
X91150Y-83250D02*
X91400Y-83500D01*
X91400Y-83500D02*
X91650Y-83250D01*
X91650Y-83250D02*
X92150Y-83250D01*
X90150Y-85250D02*
X90400Y-85000D01*
X90400Y-85000D02*
X90650Y-85250D01*
X90650Y-85250D02*
X91150Y-85250D01*
X90150Y-83250D02*
X90400Y-83500D01*
X90400Y-83500D02*
X90650Y-83250D01*
X90650Y-83250D02*
X91150Y-83250D01*
X88650Y-83250D02*
X89150Y-83250D01*
X89150Y-83250D02*
X89400Y-83500D01*
X89400Y-83500D02*
X89650Y-83250D01*
X88650Y-85250D02*
X89150Y-85250D01*
X89150Y-85250D02*
X89400Y-85000D01*
X89400Y-85000D02*
X89650Y-85250D01*
X88150Y-83250D02*
X88400Y-83500D01*
X88400Y-83500D02*
X88650Y-83250D01*
X89650Y-83250D02*
X90150Y-83250D01*
X88150Y-85250D02*
X88400Y-85000D01*
X88400Y-85000D02*
X88650Y-85250D01*
X89650Y-85250D02*
X90150Y-85250D01*
X87150Y-83250D02*
X87400Y-83500D01*
X87400Y-83500D02*
X87650Y-83250D01*
X87650Y-83250D02*
X88150Y-83250D01*
X87150Y-85250D02*
X87400Y-85000D01*
X87400Y-85000D02*
X87650Y-85250D01*
X87650Y-85250D02*
X88150Y-85250D01*
X85650Y-85250D02*
X86150Y-85250D01*
X86150Y-85250D02*
X86400Y-85000D01*
X86400Y-85000D02*
X86650Y-85250D01*
X85650Y-83250D02*
X86150Y-83250D01*
X86150Y-83250D02*
X86400Y-83500D01*
X86400Y-83500D02*
X86650Y-83250D01*
X85150Y-85250D02*
X85400Y-85000D01*
X85400Y-85000D02*
X85650Y-85250D01*
X86650Y-85250D02*
X87150Y-85250D01*
X85150Y-83250D02*
X85400Y-83500D01*
X85400Y-83500D02*
X85650Y-83250D01*
X86650Y-83250D02*
X87150Y-83250D01*
X84150Y-85250D02*
X84400Y-85000D01*
X84400Y-85000D02*
X84650Y-85250D01*
X84650Y-85250D02*
X85150Y-85250D01*
X84150Y-83250D02*
X84400Y-83500D01*
X84400Y-83500D02*
X84650Y-83250D01*
X84650Y-83250D02*
X85150Y-83250D01*
X92400Y-83500D02*
X92400Y-84000D01*
X92400Y-84000D02*
X92150Y-84250D01*
X92150Y-84250D02*
X92400Y-84500D01*
X92400Y-84500D02*
X92400Y-85000D01*
X82400Y-83500D02*
X82400Y-84000D01*
X82400Y-84000D02*
X82650Y-84250D01*
X82650Y-84250D02*
X82400Y-84500D01*
X82400Y-84500D02*
X82400Y-85000D01*
X82400Y-83500D02*
X82650Y-83250D01*
X82650Y-83250D02*
X83150Y-83250D01*
X83150Y-83250D02*
X83400Y-83500D01*
X83400Y-83500D02*
X83650Y-83250D01*
X83650Y-83250D02*
X84150Y-83250D01*
X92150Y-83250D02*
X92400Y-83500D01*
X92400Y-85000D02*
X92150Y-85250D01*
X84150Y-85250D02*
X83650Y-85250D01*
X83650Y-85250D02*
X83400Y-85000D01*
X83400Y-85000D02*
X83150Y-85250D01*
X83150Y-85250D02*
X82650Y-85250D01*
X82650Y-85250D02*
X82400Y-85000D01*
X91150Y-66250D02*
X91400Y-66000D01*
X91400Y-66000D02*
X91650Y-66250D01*
X91650Y-66250D02*
X92150Y-66250D01*
X91150Y-64250D02*
X91400Y-64500D01*
X91400Y-64500D02*
X91650Y-64250D01*
X91650Y-64250D02*
X92150Y-64250D01*
X90150Y-66250D02*
X90400Y-66000D01*
X90400Y-66000D02*
X90650Y-66250D01*
X90650Y-66250D02*
X91150Y-66250D01*
X90150Y-64250D02*
X90400Y-64500D01*
X90400Y-64500D02*
X90650Y-64250D01*
X90650Y-64250D02*
X91150Y-64250D01*
X88650Y-64250D02*
X89150Y-64250D01*
X89150Y-64250D02*
X89400Y-64500D01*
X89400Y-64500D02*
X89650Y-64250D01*
X88650Y-66250D02*
X89150Y-66250D01*
X89150Y-66250D02*
X89400Y-66000D01*
X89400Y-66000D02*
X89650Y-66250D01*
X88150Y-64250D02*
X88400Y-64500D01*
X88400Y-64500D02*
X88650Y-64250D01*
X89650Y-64250D02*
X90150Y-64250D01*
X88150Y-66250D02*
X88400Y-66000D01*
X88400Y-66000D02*
X88650Y-66250D01*
X89650Y-66250D02*
X90150Y-66250D01*
X87150Y-64250D02*
X87400Y-64500D01*
X87400Y-64500D02*
X87650Y-64250D01*
X87650Y-64250D02*
X88150Y-64250D01*
X87150Y-66250D02*
X87400Y-66000D01*
X87400Y-66000D02*
X87650Y-66250D01*
X87650Y-66250D02*
X88150Y-66250D01*
X85650Y-66250D02*
X86150Y-66250D01*
X86150Y-66250D02*
X86400Y-66000D01*
X86400Y-66000D02*
X86650Y-66250D01*
X85650Y-64250D02*
X86150Y-64250D01*
X86150Y-64250D02*
X86400Y-64500D01*
X86400Y-64500D02*
X86650Y-64250D01*
X85150Y-66250D02*
X85400Y-66000D01*
X85400Y-66000D02*
X85650Y-66250D01*
X86650Y-66250D02*
X87150Y-66250D01*
X85150Y-64250D02*
X85400Y-64500D01*
X85400Y-64500D02*
X85650Y-64250D01*
X86650Y-64250D02*
X87150Y-64250D01*
X84150Y-66250D02*
X84400Y-66000D01*
X84400Y-66000D02*
X84650Y-66250D01*
X84650Y-66250D02*
X85150Y-66250D01*
X84150Y-64250D02*
X84400Y-64500D01*
X84400Y-64500D02*
X84650Y-64250D01*
X84650Y-64250D02*
X85150Y-64250D01*
X92400Y-64500D02*
X92400Y-65000D01*
X92400Y-65000D02*
X92150Y-65250D01*
X92150Y-65250D02*
X92400Y-65500D01*
X92400Y-65500D02*
X92400Y-66000D01*
X82400Y-64500D02*
X82400Y-65000D01*
X82400Y-65000D02*
X82650Y-65250D01*
X82650Y-65250D02*
X82400Y-65500D01*
X82400Y-65500D02*
X82400Y-66000D01*
X82400Y-64500D02*
X82650Y-64250D01*
X82650Y-64250D02*
X83150Y-64250D01*
X83150Y-64250D02*
X83400Y-64500D01*
X83400Y-64500D02*
X83650Y-64250D01*
X83650Y-64250D02*
X84150Y-64250D01*
X92150Y-64250D02*
X92400Y-64500D01*
X92400Y-66000D02*
X92150Y-66250D01*
X84150Y-66250D02*
X83650Y-66250D01*
X83650Y-66250D02*
X83400Y-66000D01*
X83400Y-66000D02*
X83150Y-66250D01*
X83150Y-66250D02*
X82650Y-66250D01*
X82650Y-66250D02*
X82400Y-66000D01*
G54D14*
X83750Y-79950D02*
X83750Y-80950D01*
X83750Y-80950D02*
X81750Y-80950D01*
X81750Y-80950D02*
X81750Y-79950D01*
X81750Y-79950D02*
X83750Y-79950D01*
G54D15*
X79750Y-82700D02*
X80000Y-82950D01*
X80000Y-82950D02*
X80500Y-82950D01*
X80500Y-82950D02*
X80750Y-82700D01*
X80750Y-82700D02*
X80750Y-82200D01*
X80750Y-82200D02*
X80500Y-81950D01*
X80500Y-81950D02*
X80750Y-81700D01*
X80750Y-81700D02*
X80750Y-81200D01*
X80750Y-81200D02*
X80500Y-80950D01*
X80500Y-80950D02*
X80750Y-80700D01*
X80750Y-80700D02*
X80750Y-80200D01*
X80750Y-80200D02*
X80500Y-79950D01*
X80500Y-79950D02*
X80750Y-79700D01*
X80750Y-79700D02*
X80750Y-79200D01*
X80750Y-79200D02*
X80500Y-78950D01*
X80500Y-78950D02*
X80750Y-78700D01*
X80750Y-78700D02*
X80750Y-78200D01*
X80750Y-78200D02*
X80500Y-77950D01*
X80500Y-77950D02*
X80000Y-77950D01*
X80000Y-77950D02*
X79750Y-78200D01*
X79750Y-78200D02*
X79750Y-78700D01*
X79750Y-78700D02*
X80000Y-78950D01*
X80000Y-78950D02*
X79750Y-79200D01*
X79750Y-79200D02*
X79750Y-79700D01*
X79750Y-79700D02*
X80000Y-79950D01*
X80000Y-79950D02*
X79750Y-80200D01*
X79750Y-80200D02*
X79750Y-80700D01*
X79750Y-80700D02*
X80000Y-80950D01*
X80000Y-80950D02*
X79750Y-81200D01*
X79750Y-81200D02*
X79750Y-81700D01*
X79750Y-81700D02*
X80000Y-81950D01*
X80000Y-81950D02*
X79750Y-82200D01*
X79750Y-82200D02*
X79750Y-82700D01*
X87650Y-70950D02*
X87400Y-71200D01*
X87400Y-71200D02*
X87400Y-71700D01*
X87400Y-71700D02*
X87650Y-71950D01*
X87650Y-71950D02*
X88150Y-71950D01*
X88150Y-71950D02*
X88400Y-71700D01*
X88400Y-71700D02*
X88650Y-71950D01*
X88650Y-71950D02*
X89150Y-71950D01*
X89150Y-71950D02*
X89400Y-71700D01*
X89400Y-71700D02*
X89650Y-71950D01*
X89650Y-71950D02*
X90150Y-71950D01*
X90150Y-71950D02*
X90400Y-71700D01*
X90400Y-71700D02*
X90650Y-71950D01*
X90650Y-71950D02*
X91150Y-71950D01*
X91150Y-71950D02*
X91400Y-71700D01*
X91400Y-71700D02*
X91650Y-71950D01*
X91650Y-71950D02*
X92150Y-71950D01*
X92150Y-71950D02*
X92400Y-71700D01*
X92400Y-71700D02*
X92400Y-71200D01*
X92400Y-71200D02*
X92150Y-70950D01*
X92150Y-70950D02*
X91650Y-70950D01*
X91650Y-70950D02*
X91400Y-71200D01*
X91400Y-71200D02*
X91150Y-70950D01*
X91150Y-70950D02*
X90650Y-70950D01*
X90650Y-70950D02*
X90400Y-71200D01*
X90400Y-71200D02*
X90150Y-70950D01*
X90150Y-70950D02*
X89650Y-70950D01*
X89650Y-70950D02*
X89400Y-71200D01*
X89400Y-71200D02*
X89150Y-70950D01*
X89150Y-70950D02*
X88650Y-70950D01*
X88650Y-70950D02*
X88400Y-71200D01*
X88400Y-71200D02*
X88150Y-70950D01*
X88150Y-70950D02*
X87650Y-70950D01*
X87650Y-72250D02*
X87400Y-72500D01*
X87400Y-72500D02*
X87400Y-73000D01*
X87400Y-73000D02*
X87650Y-73250D01*
X87650Y-73250D02*
X88150Y-73250D01*
X88150Y-73250D02*
X88400Y-73000D01*
X88400Y-73000D02*
X88650Y-73250D01*
X88650Y-73250D02*
X89150Y-73250D01*
X89150Y-73250D02*
X89400Y-73000D01*
X89400Y-73000D02*
X89650Y-73250D01*
X89650Y-73250D02*
X90150Y-73250D01*
X90150Y-73250D02*
X90400Y-73000D01*
X90400Y-73000D02*
X90650Y-73250D01*
X90650Y-73250D02*
X91150Y-73250D01*
X91150Y-73250D02*
X91400Y-73000D01*
X91400Y-73000D02*
X91650Y-73250D01*
X91650Y-73250D02*
X92150Y-73250D01*
X92150Y-73250D02*
X92400Y-73000D01*
X92400Y-73000D02*
X92400Y-72500D01*
X92400Y-72500D02*
X92150Y-72250D01*
X92150Y-72250D02*
X91650Y-72250D01*
X91650Y-72250D02*
X91400Y-72500D01*
X91400Y-72500D02*
X91150Y-72250D01*
X91150Y-72250D02*
X90650Y-72250D01*
X90650Y-72250D02*
X90400Y-72500D01*
X90400Y-72500D02*
X90150Y-72250D01*
X90150Y-72250D02*
X89650Y-72250D01*
X89650Y-72250D02*
X89400Y-72500D01*
X89400Y-72500D02*
X89150Y-72250D01*
X89150Y-72250D02*
X88650Y-72250D01*
X88650Y-72250D02*
X88400Y-72500D01*
X88400Y-72500D02*
X88150Y-72250D01*
X88150Y-72250D02*
X87650Y-72250D01*
X87650Y-73550D02*
X87400Y-73800D01*
X87400Y-73800D02*
X87400Y-74300D01*
X87400Y-74300D02*
X87650Y-74550D01*
X87650Y-74550D02*
X88150Y-74550D01*
X88150Y-74550D02*
X88400Y-74300D01*
X88400Y-74300D02*
X88650Y-74550D01*
X88650Y-74550D02*
X89150Y-74550D01*
X89150Y-74550D02*
X89400Y-74300D01*
X89400Y-74300D02*
X89650Y-74550D01*
X89650Y-74550D02*
X90150Y-74550D01*
X90150Y-74550D02*
X90400Y-74300D01*
X90400Y-74300D02*
X90650Y-74550D01*
X90650Y-74550D02*
X91150Y-74550D01*
X91150Y-74550D02*
X91400Y-74300D01*
X91400Y-74300D02*
X91650Y-74550D01*
X91650Y-74550D02*
X92150Y-74550D01*
X92150Y-74550D02*
X92400Y-74300D01*
X92400Y-74300D02*
X92400Y-73800D01*
X92400Y-73800D02*
X92150Y-73550D01*
X92150Y-73550D02*
X91650Y-73550D01*
X91650Y-73550D02*
X91400Y-73800D01*
X91400Y-73800D02*
X91150Y-73550D01*
X91150Y-73550D02*
X90650Y-73550D01*
X90650Y-73550D02*
X90400Y-73800D01*
X90400Y-73800D02*
X90150Y-73550D01*
X90150Y-73550D02*
X89650Y-73550D01*
X89650Y-73550D02*
X89400Y-73800D01*
X89400Y-73800D02*
X89150Y-73550D01*
X89150Y-73550D02*
X88650Y-73550D01*
X88650Y-73550D02*
X88400Y-73800D01*
X88400Y-73800D02*
X88150Y-73550D01*
X88150Y-73550D02*
X87650Y-73550D01*
X87650Y-74850D02*
X87400Y-75100D01*
X87400Y-75100D02*
X87400Y-75600D01*
X87400Y-75600D02*
X87650Y-75850D01*
X87650Y-75850D02*
X88150Y-75850D01*
X88150Y-75850D02*
X88400Y-75600D01*
X88400Y-75600D02*
X88650Y-75850D01*
X88650Y-75850D02*
X89150Y-75850D01*
X89150Y-75850D02*
X89400Y-75600D01*
X89400Y-75600D02*
X89650Y-75850D01*
X89650Y-75850D02*
X90150Y-75850D01*
X90150Y-75850D02*
X90400Y-75600D01*
X90400Y-75600D02*
X90650Y-75850D01*
X90650Y-75850D02*
X91150Y-75850D01*
X91150Y-75850D02*
X91400Y-75600D01*
X91400Y-75600D02*
X91650Y-75850D01*
X91650Y-75850D02*
X92150Y-75850D01*
X92150Y-75850D02*
X92400Y-75600D01*
X92400Y-75600D02*
X92400Y-75100D01*
X92400Y-75100D02*
X92150Y-74850D01*
X92150Y-74850D02*
X91650Y-74850D01*
X91650Y-74850D02*
X91400Y-75100D01*
X91400Y-75100D02*
X91150Y-74850D01*
X91150Y-74850D02*
X90650Y-74850D01*
X90650Y-74850D02*
X90400Y-75100D01*
X90400Y-75100D02*
X90150Y-74850D01*
X90150Y-74850D02*
X89650Y-74850D01*
X89650Y-74850D02*
X89400Y-75100D01*
X89400Y-75100D02*
X89150Y-74850D01*
X89150Y-74850D02*
X88650Y-74850D01*
X88650Y-74850D02*
X88400Y-75100D01*
X88400Y-75100D02*
X88150Y-74850D01*
X88150Y-74850D02*
X87650Y-74850D01*
X87650Y-76150D02*
X87400Y-76400D01*
X87400Y-76400D02*
X87400Y-76900D01*
X87400Y-76900D02*
X87650Y-77150D01*
X87650Y-77150D02*
X88150Y-77150D01*
X88150Y-77150D02*
X88400Y-76900D01*
X88400Y-76900D02*
X88650Y-77150D01*
X88650Y-77150D02*
X89150Y-77150D01*
X89150Y-77150D02*
X89400Y-76900D01*
X89400Y-76900D02*
X89650Y-77150D01*
X89650Y-77150D02*
X90150Y-77150D01*
X90150Y-77150D02*
X90400Y-76900D01*
X90400Y-76900D02*
X90650Y-77150D01*
X90650Y-77150D02*
X91150Y-77150D01*
X91150Y-77150D02*
X91400Y-76900D01*
X91400Y-76900D02*
X91650Y-77150D01*
X91650Y-77150D02*
X92150Y-77150D01*
X92150Y-77150D02*
X92400Y-76900D01*
X92400Y-76900D02*
X92400Y-76400D01*
X92400Y-76400D02*
X92150Y-76150D01*
X92150Y-76150D02*
X91650Y-76150D01*
X91650Y-76150D02*
X91400Y-76400D01*
X91400Y-76400D02*
X91150Y-76150D01*
X91150Y-76150D02*
X90650Y-76150D01*
X90650Y-76150D02*
X90400Y-76400D01*
X90400Y-76400D02*
X90150Y-76150D01*
X90150Y-76150D02*
X89650Y-76150D01*
X89650Y-76150D02*
X89400Y-76400D01*
X89400Y-76400D02*
X89150Y-76150D01*
X89150Y-76150D02*
X88650Y-76150D01*
X88650Y-76150D02*
X88400Y-76400D01*
X88400Y-76400D02*
X88150Y-76150D01*
X88150Y-76150D02*
X87650Y-76150D01*
X87650Y-77450D02*
X87400Y-77700D01*
X87400Y-77700D02*
X87400Y-78200D01*
X87400Y-78200D02*
X87650Y-78450D01*
X87650Y-78450D02*
X88150Y-78450D01*
X88150Y-78450D02*
X88400Y-78200D01*
X88400Y-78200D02*
X88650Y-78450D01*
X88650Y-78450D02*
X89150Y-78450D01*
X89150Y-78450D02*
X89400Y-78200D01*
X89400Y-78200D02*
X89650Y-78450D01*
X89650Y-78450D02*
X90150Y-78450D01*
X90150Y-78450D02*
X90400Y-78200D01*
X90400Y-78200D02*
X90650Y-78450D01*
X90650Y-78450D02*
X91150Y-78450D01*
X91150Y-78450D02*
X91400Y-78200D01*
X91400Y-78200D02*
X91650Y-78450D01*
X91650Y-78450D02*
X92150Y-78450D01*
X92150Y-78450D02*
X92400Y-78200D01*
X92400Y-78200D02*
X92400Y-77700D01*
X92400Y-77700D02*
X92150Y-77450D01*
X92150Y-77450D02*
X91650Y-77450D01*
X91650Y-77450D02*
X91400Y-77700D01*
X91400Y-77700D02*
X91150Y-77450D01*
X91150Y-77450D02*
X90650Y-77450D01*
X90650Y-77450D02*
X90400Y-77700D01*
X90400Y-77700D02*
X90150Y-77450D01*
X90150Y-77450D02*
X89650Y-77450D01*
X89650Y-77450D02*
X89400Y-77700D01*
X89400Y-77700D02*
X89150Y-77450D01*
X89150Y-77450D02*
X88650Y-77450D01*
X88650Y-77450D02*
X88400Y-77700D01*
X88400Y-77700D02*
X88150Y-77450D01*
X88150Y-77450D02*
X87650Y-77450D01*
G54D16*
X81700Y-66330D02*
X80200Y-66330D01*
G54D17*
X81657Y-67350D02*
G75*
G03X81657Y-67350I-707J0D01*
G74*
G01*
G54D12*
X80199Y-66350D02*
G75*
G03X81700Y-66350I750J-999D01*
G74*
G01*
G54D18*
X80500Y-67350D02*
G75*
G03X80950Y-67800I450J0D01*
G74*
G01*
X81400Y-67350D02*
G75*
G03X80950Y-66900I-450J0D01*
G74*
G01*
X80300Y-67350D02*
G75*
G03X80950Y-68000I650J0D01*
G74*
G01*
X81600Y-67350D02*
G75*
G03X80950Y-66700I-650J0D01*
G74*
G01*
X80100Y-67350D02*
G75*
G03X80950Y-68200I850J0D01*
G74*
G01*
X81800Y-67350D02*
G75*
G03X80950Y-66500I-850J0D01*
G74*
G01*
G54D16*
X82900Y-69300D02*
X82700Y-69300D01*
X79900Y-69300D02*
X80100Y-69300D01*
X80100Y-69300D02*
X80100Y-69700D01*
X80100Y-69700D02*
X82700Y-69700D01*
X82700Y-69700D02*
X82700Y-68900D01*
X82700Y-68900D02*
X80100Y-68900D01*
X80100Y-68900D02*
X80100Y-69300D01*
X82700Y-69500D02*
X82500Y-69700D01*
X86241Y-76139D02*
X86225Y-76160D01*
X86175Y-76182D01*
X86141Y-76182D01*
X86091Y-76160D01*
X86058Y-76117D01*
X86041Y-76075D01*
X86025Y-75989D01*
X86025Y-75925D01*
X86041Y-75839D01*
X86058Y-75796D01*
X86091Y-75753D01*
X86141Y-75732D01*
X86175Y-75732D01*
X86225Y-75753D01*
X86241Y-75775D01*
X86575Y-76182D02*
X86375Y-76182D01*
X86475Y-76182D02*
X86475Y-75732D01*
X86441Y-75796D01*
X86408Y-75839D01*
X86375Y-75860D01*
G54D19*
X83578Y-75960D02*
X83921Y-75960D01*
X83750Y-76132D02*
X83750Y-75789D01*
G54D15*
X81430Y-85052D02*
X81430Y-84552D01*
X81621Y-84552D01*
X81669Y-84576D01*
X81692Y-84600D01*
X81716Y-84647D01*
X81716Y-84719D01*
X81692Y-84766D01*
X81669Y-84790D01*
X81621Y-84814D01*
X81430Y-84814D01*
X81954Y-85052D02*
X82050Y-85052D01*
X82097Y-85028D01*
X82121Y-85004D01*
X82169Y-84933D01*
X82192Y-84838D01*
X82192Y-84647D01*
X82169Y-84600D01*
X82145Y-84576D01*
X82097Y-84552D01*
X82002Y-84552D01*
X81954Y-84576D01*
X81930Y-84600D01*
X81907Y-84647D01*
X81907Y-84766D01*
X81930Y-84814D01*
X81954Y-84838D01*
X82002Y-84861D01*
X82097Y-84861D01*
X82145Y-84838D01*
X82169Y-84814D01*
X82192Y-84766D01*
X81430Y-66002D02*
X81430Y-65502D01*
X81621Y-65502D01*
X81669Y-65526D01*
X81692Y-65550D01*
X81716Y-65597D01*
X81716Y-65669D01*
X81692Y-65716D01*
X81669Y-65740D01*
X81621Y-65764D01*
X81430Y-65764D01*
X82002Y-65716D02*
X81954Y-65692D01*
X81930Y-65669D01*
X81907Y-65621D01*
X81907Y-65597D01*
X81930Y-65550D01*
X81954Y-65526D01*
X82002Y-65502D01*
X82097Y-65502D01*
X82145Y-65526D01*
X82169Y-65550D01*
X82192Y-65597D01*
X82192Y-65621D01*
X82169Y-65669D01*
X82145Y-65692D01*
X82097Y-65716D01*
X82002Y-65716D01*
X81954Y-65740D01*
X81930Y-65764D01*
X81907Y-65811D01*
X81907Y-65907D01*
X81930Y-65954D01*
X81954Y-65978D01*
X82002Y-66002D01*
X82097Y-66002D01*
X82145Y-65978D01*
X82169Y-65954D01*
X82192Y-65907D01*
X82192Y-65811D01*
X82169Y-65764D01*
X82145Y-65740D01*
X82097Y-65716D01*
G54D20*
X79571Y-67671D02*
X79271Y-67671D01*
X79271Y-67600D01*
X79285Y-67557D01*
X79314Y-67528D01*
X79342Y-67514D01*
X79400Y-67500D01*
X79442Y-67500D01*
X79500Y-67514D01*
X79528Y-67528D01*
X79557Y-67557D01*
X79571Y-67600D01*
X79571Y-67671D01*
X79571Y-67214D02*
X79571Y-67385D01*
X79571Y-67300D02*
X79271Y-67300D01*
X79314Y-67328D01*
X79342Y-67357D01*
X79357Y-67385D01*
X82571Y-67642D02*
X82571Y-67785D01*
X82271Y-67785D01*
X82414Y-67542D02*
X82414Y-67442D01*
X82571Y-67400D02*
X82571Y-67542D01*
X82271Y-67542D01*
X82271Y-67400D01*
X82571Y-67271D02*
X82271Y-67271D01*
X82271Y-67200D01*
X82285Y-67157D01*
X82314Y-67128D01*
X82342Y-67114D01*
X82400Y-67100D01*
X82442Y-67100D01*
X82500Y-67114D01*
X82528Y-67128D01*
X82557Y-67157D01*
X82571Y-67200D01*
X82571Y-67271D01*
G54D16*
X81292Y-69472D02*
X81007Y-69472D01*
X81150Y-69472D02*
X81150Y-68922D01*
X81102Y-69001D01*
X81054Y-69053D01*
X81007Y-69079D01*
X81507Y-69472D02*
X81507Y-68922D01*
X81792Y-69472D02*
X81578Y-69158D01*
X81792Y-68922D02*
X81507Y-69236D01*
M02*
