G04 (created by PCBNEW (2013-07-07 BZR 4022)-stable) date 3/14/2014 11:35:05 AM*
%MOIN*%
G04 Gerber Fmt 3.4, Leading zero omitted, Abs format*
%FSLAX34Y34*%
G01*
G70*
G90*
G04 APERTURE LIST*
%ADD10C,0.00590551*%
%ADD11C,0.011811*%
G04 APERTURE END LIST*
G54D10*
G54D11*
X92349Y-69048D02*
X92153Y-69639D01*
X91956Y-69048D01*
X91646Y-69048D02*
X91590Y-69048D01*
X91534Y-69076D01*
X91506Y-69104D01*
X91478Y-69160D01*
X91450Y-69273D01*
X91450Y-69414D01*
X91478Y-69526D01*
X91506Y-69582D01*
X91534Y-69610D01*
X91590Y-69639D01*
X91646Y-69639D01*
X91703Y-69610D01*
X91731Y-69582D01*
X91759Y-69526D01*
X91787Y-69414D01*
X91787Y-69273D01*
X91759Y-69160D01*
X91731Y-69104D01*
X91703Y-69076D01*
X91646Y-69048D01*
X91196Y-69582D02*
X91168Y-69610D01*
X91196Y-69639D01*
X91225Y-69610D01*
X91196Y-69582D01*
X91196Y-69639D01*
X90606Y-69639D02*
X90943Y-69639D01*
X90775Y-69639D02*
X90775Y-69048D01*
X90831Y-69132D01*
X90887Y-69189D01*
X90943Y-69217D01*
X92151Y-68479D02*
X92066Y-68507D01*
X92038Y-68535D01*
X92010Y-68592D01*
X92010Y-68676D01*
X92038Y-68732D01*
X92066Y-68760D01*
X92123Y-68789D01*
X92348Y-68789D01*
X92348Y-68198D01*
X92151Y-68198D01*
X92095Y-68226D01*
X92066Y-68254D01*
X92038Y-68310D01*
X92038Y-68367D01*
X92066Y-68423D01*
X92095Y-68451D01*
X92151Y-68479D01*
X92348Y-68479D01*
X91560Y-68479D02*
X91476Y-68507D01*
X91448Y-68535D01*
X91420Y-68592D01*
X91420Y-68676D01*
X91448Y-68732D01*
X91476Y-68760D01*
X91532Y-68789D01*
X91757Y-68789D01*
X91757Y-68198D01*
X91560Y-68198D01*
X91504Y-68226D01*
X91476Y-68254D01*
X91448Y-68310D01*
X91448Y-68367D01*
X91476Y-68423D01*
X91504Y-68451D01*
X91560Y-68479D01*
X91757Y-68479D01*
X90970Y-68479D02*
X90885Y-68507D01*
X90857Y-68535D01*
X90829Y-68592D01*
X90829Y-68676D01*
X90857Y-68732D01*
X90885Y-68760D01*
X90942Y-68789D01*
X91167Y-68789D01*
X91167Y-68198D01*
X90970Y-68198D01*
X90914Y-68226D01*
X90885Y-68254D01*
X90857Y-68310D01*
X90857Y-68367D01*
X90885Y-68423D01*
X90914Y-68451D01*
X90970Y-68479D01*
X91167Y-68479D01*
X90126Y-68789D02*
X90126Y-68198D01*
X89901Y-68198D01*
X89845Y-68226D01*
X89817Y-68254D01*
X89789Y-68310D01*
X89789Y-68395D01*
X89817Y-68451D01*
X89845Y-68479D01*
X89901Y-68507D01*
X90126Y-68507D01*
X89592Y-68198D02*
X89451Y-68789D01*
X89339Y-68367D01*
X89226Y-68789D01*
X89086Y-68198D01*
X88523Y-68789D02*
X88720Y-68507D01*
X88861Y-68789D02*
X88861Y-68198D01*
X88636Y-68198D01*
X88579Y-68226D01*
X88551Y-68254D01*
X88523Y-68310D01*
X88523Y-68395D01*
X88551Y-68451D01*
X88579Y-68479D01*
X88636Y-68507D01*
X88861Y-68507D01*
X92326Y-67860D02*
X92242Y-67889D01*
X92101Y-67889D01*
X92045Y-67860D01*
X92017Y-67832D01*
X91988Y-67776D01*
X91988Y-67720D01*
X92017Y-67664D01*
X92045Y-67635D01*
X92101Y-67607D01*
X92213Y-67579D01*
X92270Y-67551D01*
X92298Y-67523D01*
X92326Y-67467D01*
X92326Y-67410D01*
X92298Y-67354D01*
X92270Y-67326D01*
X92213Y-67298D01*
X92073Y-67298D01*
X91988Y-67326D01*
X91735Y-67889D02*
X91735Y-67298D01*
X91398Y-67889D01*
X91398Y-67298D01*
X91117Y-67889D02*
X91117Y-67298D01*
X90835Y-67889D02*
X90835Y-67298D01*
X90695Y-67298D01*
X90610Y-67326D01*
X90554Y-67382D01*
X90526Y-67439D01*
X90498Y-67551D01*
X90498Y-67635D01*
X90526Y-67748D01*
X90554Y-67804D01*
X90610Y-67860D01*
X90695Y-67889D01*
X90835Y-67889D01*
X90245Y-67579D02*
X90048Y-67579D01*
X89964Y-67889D02*
X90245Y-67889D01*
X90245Y-67298D01*
X89964Y-67298D01*
X89373Y-67889D02*
X89570Y-67607D01*
X89711Y-67889D02*
X89711Y-67298D01*
X89486Y-67298D01*
X89429Y-67326D01*
X89401Y-67354D01*
X89373Y-67410D01*
X89373Y-67495D01*
X89401Y-67551D01*
X89429Y-67579D01*
X89486Y-67607D01*
X89711Y-67607D01*
M02*
