G04 (created by PCBNEW (2013-07-07 BZR 4022)-stable) date 3/14/2014 11:35:05 AM*
%MOIN*%
G04 Gerber Fmt 3.4, Leading zero omitted, Abs format*
%FSLAX34Y34*%
G01*
G70*
G90*
G04 APERTURE LIST*
%ADD10C,0.00590551*%
%ADD11R,0.06X0.06*%
%ADD12C,0.06*%
%ADD13C,0.055*%
%ADD14R,0.055X0.055*%
%ADD15R,0.0708661X0.0708661*%
%ADD16C,0.0708661*%
%ADD17C,0.066*%
%ADD18C,0.025*%
%ADD19C,0.02*%
%ADD20C,0.01*%
G04 APERTURE END LIST*
G54D10*
G54D11*
X84350Y-75950D03*
G54D12*
X85350Y-75950D03*
G54D13*
X84650Y-78300D03*
X85650Y-78300D03*
X84650Y-79500D03*
X85650Y-79500D03*
G54D14*
X87900Y-82400D03*
G54D13*
X86900Y-82400D03*
G54D14*
X82650Y-82500D03*
G54D13*
X81650Y-82500D03*
G54D14*
X85400Y-73700D03*
G54D13*
X84400Y-73700D03*
G54D15*
X82900Y-83750D03*
G54D16*
X82900Y-84750D03*
X83900Y-83750D03*
X83900Y-84750D03*
X84900Y-83750D03*
X84900Y-84750D03*
X85900Y-83750D03*
X85900Y-84750D03*
X86900Y-83750D03*
X86900Y-84750D03*
X87900Y-83750D03*
X87900Y-84750D03*
X88900Y-83750D03*
X88900Y-84750D03*
X89900Y-83750D03*
X89900Y-84750D03*
X90900Y-83750D03*
X90900Y-84750D03*
X91900Y-83750D03*
X91900Y-84750D03*
G54D15*
X82900Y-64750D03*
G54D16*
X82900Y-65750D03*
X83900Y-64750D03*
X83900Y-65750D03*
X84900Y-64750D03*
X84900Y-65750D03*
X85900Y-64750D03*
X85900Y-65750D03*
X86900Y-64750D03*
X86900Y-65750D03*
X87900Y-64750D03*
X87900Y-65750D03*
X88900Y-64750D03*
X88900Y-65750D03*
X89900Y-64750D03*
X89900Y-65750D03*
X90900Y-64750D03*
X90900Y-65750D03*
X91900Y-64750D03*
X91900Y-65750D03*
G54D14*
X83250Y-80450D03*
G54D13*
X82250Y-80450D03*
G54D15*
X80250Y-82450D03*
G54D16*
X80250Y-81450D03*
X80250Y-80450D03*
X80250Y-79450D03*
X80250Y-78450D03*
G54D15*
X87900Y-71450D03*
G54D16*
X88900Y-71450D03*
X89900Y-71450D03*
X90900Y-71450D03*
X91900Y-71450D03*
G54D15*
X87900Y-72750D03*
G54D16*
X88900Y-72750D03*
X89900Y-72750D03*
X90900Y-72750D03*
X91900Y-72750D03*
G54D15*
X87900Y-74050D03*
G54D16*
X88900Y-74050D03*
X89900Y-74050D03*
X90900Y-74050D03*
X91900Y-74050D03*
G54D15*
X87900Y-75350D03*
G54D16*
X88900Y-75350D03*
X89900Y-75350D03*
X90900Y-75350D03*
X91900Y-75350D03*
G54D15*
X87900Y-76650D03*
G54D16*
X88900Y-76650D03*
X89900Y-76650D03*
X90900Y-76650D03*
X91900Y-76650D03*
G54D15*
X87900Y-77950D03*
G54D16*
X88900Y-77950D03*
X89900Y-77950D03*
X90900Y-77950D03*
X91900Y-77950D03*
G54D17*
X80950Y-67950D03*
X80950Y-66950D03*
G54D13*
X82900Y-69300D03*
X79900Y-69300D03*
G54D18*
X87900Y-77950D02*
X87900Y-76650D01*
X87900Y-76650D02*
X87900Y-75350D01*
X87900Y-75350D02*
X87900Y-74050D01*
X87900Y-74050D02*
X87900Y-72750D01*
X87900Y-72750D02*
X87900Y-71450D01*
G54D19*
X89900Y-77950D02*
X89900Y-76650D01*
X89900Y-76650D02*
X89900Y-75350D01*
X89900Y-75350D02*
X89900Y-74050D01*
X89900Y-74050D02*
X89900Y-72750D01*
X89900Y-72750D02*
X89900Y-71450D01*
X84900Y-84750D02*
X84900Y-83750D01*
X80250Y-79450D02*
X84173Y-79450D01*
X84173Y-83023D02*
X84173Y-79450D01*
X84900Y-83750D02*
X84173Y-83023D01*
X84173Y-78776D02*
X84650Y-78300D01*
X84173Y-79450D02*
X84173Y-78776D01*
G54D18*
X84400Y-75000D02*
X85350Y-75950D01*
X84400Y-73700D02*
X84400Y-75000D01*
G54D20*
X91900Y-76650D02*
X91900Y-75350D01*
X91900Y-75350D02*
X91900Y-74050D01*
X91900Y-74050D02*
X91900Y-72750D01*
X91900Y-72750D02*
X91900Y-71450D01*
X91900Y-76650D02*
X91900Y-77950D01*
X92420Y-84229D02*
X91900Y-84750D01*
X92420Y-78470D02*
X92420Y-84229D01*
X91900Y-77950D02*
X92420Y-78470D01*
X90900Y-76650D02*
X90900Y-75350D01*
X90900Y-75350D02*
X90900Y-74050D01*
X90900Y-74050D02*
X90900Y-72750D01*
X90900Y-72750D02*
X90900Y-71450D01*
X90900Y-76650D02*
X90900Y-77950D01*
X91900Y-78950D02*
X91900Y-83750D01*
X90900Y-77950D02*
X91900Y-78950D01*
G54D10*
G36*
X92380Y-71075D02*
X92242Y-70937D01*
X92020Y-70845D01*
X91780Y-70845D01*
X91558Y-70937D01*
X91399Y-71095D01*
X91242Y-70937D01*
X91020Y-70845D01*
X90780Y-70845D01*
X90558Y-70937D01*
X90399Y-71095D01*
X90242Y-70937D01*
X90020Y-70845D01*
X89780Y-70845D01*
X89558Y-70937D01*
X89387Y-71107D01*
X89384Y-71115D01*
X89325Y-71095D01*
X89254Y-71166D01*
X88970Y-71450D01*
X89325Y-71804D01*
X89384Y-71784D01*
X89387Y-71791D01*
X89550Y-71954D01*
X89550Y-72245D01*
X89387Y-72407D01*
X89384Y-72415D01*
X89325Y-72395D01*
X89254Y-72466D01*
X88970Y-72750D01*
X89325Y-73104D01*
X89384Y-73084D01*
X89387Y-73091D01*
X89550Y-73254D01*
X89550Y-73545D01*
X89387Y-73707D01*
X89384Y-73715D01*
X89325Y-73695D01*
X89254Y-73766D01*
X88970Y-74050D01*
X89325Y-74404D01*
X89384Y-74384D01*
X89387Y-74391D01*
X89550Y-74554D01*
X89550Y-74845D01*
X89387Y-75007D01*
X89384Y-75015D01*
X89325Y-74995D01*
X89254Y-75066D01*
X88970Y-75350D01*
X89325Y-75704D01*
X89384Y-75684D01*
X89387Y-75691D01*
X89550Y-75854D01*
X89550Y-76145D01*
X89387Y-76307D01*
X89384Y-76315D01*
X89325Y-76295D01*
X89254Y-76366D01*
X88970Y-76650D01*
X89325Y-77004D01*
X89384Y-76984D01*
X89387Y-76991D01*
X89550Y-77154D01*
X89550Y-77445D01*
X89387Y-77607D01*
X89384Y-77615D01*
X89325Y-77595D01*
X89254Y-77666D01*
X88970Y-77950D01*
X89325Y-78304D01*
X89384Y-78284D01*
X89387Y-78291D01*
X89557Y-78462D01*
X89779Y-78554D01*
X90019Y-78554D01*
X90241Y-78462D01*
X90400Y-78304D01*
X90557Y-78462D01*
X90779Y-78554D01*
X91019Y-78554D01*
X91062Y-78536D01*
X91600Y-79074D01*
X91600Y-83220D01*
X91558Y-83237D01*
X91399Y-83395D01*
X91242Y-83237D01*
X91020Y-83145D01*
X90780Y-83145D01*
X90558Y-83237D01*
X90399Y-83395D01*
X90242Y-83237D01*
X90020Y-83145D01*
X89780Y-83145D01*
X89558Y-83237D01*
X89399Y-83395D01*
X89254Y-83249D01*
X89254Y-78375D01*
X88900Y-78020D01*
X88894Y-78026D01*
X88829Y-77961D01*
X88823Y-77955D01*
X88829Y-77950D01*
X88823Y-77944D01*
X88894Y-77873D01*
X88900Y-77879D01*
X89254Y-77524D01*
X89220Y-77423D01*
X88994Y-77341D01*
X88754Y-77351D01*
X88579Y-77423D01*
X88545Y-77524D01*
X88500Y-77479D01*
X88483Y-77496D01*
X88466Y-77454D01*
X88396Y-77383D01*
X88304Y-77345D01*
X88275Y-77345D01*
X88275Y-77254D01*
X88303Y-77254D01*
X88395Y-77216D01*
X88466Y-77146D01*
X88483Y-77103D01*
X88500Y-77120D01*
X88545Y-77075D01*
X88579Y-77176D01*
X88805Y-77258D01*
X89045Y-77248D01*
X89220Y-77176D01*
X89254Y-77075D01*
X88900Y-76720D01*
X88894Y-76726D01*
X88823Y-76655D01*
X88829Y-76650D01*
X88823Y-76644D01*
X88894Y-76573D01*
X88900Y-76579D01*
X89254Y-76224D01*
X89220Y-76123D01*
X88994Y-76041D01*
X88754Y-76051D01*
X88579Y-76123D01*
X88545Y-76224D01*
X88500Y-76179D01*
X88483Y-76196D01*
X88466Y-76154D01*
X88396Y-76083D01*
X88304Y-76045D01*
X88275Y-76045D01*
X88275Y-75954D01*
X88303Y-75954D01*
X88395Y-75916D01*
X88466Y-75846D01*
X88483Y-75803D01*
X88500Y-75820D01*
X88545Y-75775D01*
X88579Y-75876D01*
X88805Y-75958D01*
X89045Y-75948D01*
X89220Y-75876D01*
X89254Y-75775D01*
X88900Y-75420D01*
X88894Y-75426D01*
X88823Y-75355D01*
X88829Y-75350D01*
X88823Y-75344D01*
X88894Y-75273D01*
X88900Y-75279D01*
X89254Y-74924D01*
X89220Y-74823D01*
X88994Y-74741D01*
X88754Y-74751D01*
X88579Y-74823D01*
X88545Y-74924D01*
X88500Y-74879D01*
X88483Y-74896D01*
X88466Y-74854D01*
X88396Y-74783D01*
X88304Y-74745D01*
X88275Y-74745D01*
X88275Y-74654D01*
X88303Y-74654D01*
X88395Y-74616D01*
X88466Y-74546D01*
X88483Y-74503D01*
X88500Y-74520D01*
X88545Y-74475D01*
X88579Y-74576D01*
X88805Y-74658D01*
X89045Y-74648D01*
X89220Y-74576D01*
X89254Y-74475D01*
X88900Y-74120D01*
X88894Y-74126D01*
X88823Y-74055D01*
X88829Y-74050D01*
X88823Y-74044D01*
X88894Y-73973D01*
X88900Y-73979D01*
X89254Y-73624D01*
X89220Y-73523D01*
X88994Y-73441D01*
X88754Y-73451D01*
X88579Y-73523D01*
X88545Y-73624D01*
X88500Y-73579D01*
X88483Y-73596D01*
X88466Y-73554D01*
X88396Y-73483D01*
X88304Y-73445D01*
X88275Y-73445D01*
X88275Y-73354D01*
X88303Y-73354D01*
X88395Y-73316D01*
X88466Y-73246D01*
X88483Y-73203D01*
X88500Y-73220D01*
X88545Y-73175D01*
X88579Y-73276D01*
X88805Y-73358D01*
X89045Y-73348D01*
X89220Y-73276D01*
X89254Y-73175D01*
X88900Y-72820D01*
X88894Y-72826D01*
X88823Y-72755D01*
X88829Y-72750D01*
X88823Y-72744D01*
X88894Y-72673D01*
X88900Y-72679D01*
X89254Y-72324D01*
X89220Y-72223D01*
X88994Y-72141D01*
X88754Y-72151D01*
X88579Y-72223D01*
X88545Y-72324D01*
X88500Y-72279D01*
X88483Y-72296D01*
X88466Y-72254D01*
X88396Y-72183D01*
X88304Y-72145D01*
X88275Y-72145D01*
X88275Y-72054D01*
X88303Y-72054D01*
X88395Y-72016D01*
X88466Y-71946D01*
X88483Y-71903D01*
X88500Y-71920D01*
X88545Y-71875D01*
X88579Y-71976D01*
X88805Y-72058D01*
X89045Y-72048D01*
X89220Y-71976D01*
X89254Y-71875D01*
X88900Y-71520D01*
X88894Y-71526D01*
X88823Y-71455D01*
X88829Y-71450D01*
X88823Y-71444D01*
X88894Y-71373D01*
X88900Y-71379D01*
X89254Y-71024D01*
X89220Y-70923D01*
X88994Y-70841D01*
X88754Y-70851D01*
X88579Y-70923D01*
X88545Y-71024D01*
X88500Y-70979D01*
X88483Y-70996D01*
X88466Y-70954D01*
X88396Y-70883D01*
X88304Y-70845D01*
X88204Y-70845D01*
X87496Y-70845D01*
X87404Y-70883D01*
X87333Y-70953D01*
X87295Y-71045D01*
X87295Y-71145D01*
X87295Y-71853D01*
X87333Y-71945D01*
X87403Y-72016D01*
X87495Y-72054D01*
X87525Y-72054D01*
X87525Y-72145D01*
X87496Y-72145D01*
X87404Y-72183D01*
X87333Y-72253D01*
X87295Y-72345D01*
X87295Y-72445D01*
X87295Y-73153D01*
X87333Y-73245D01*
X87403Y-73316D01*
X87495Y-73354D01*
X87525Y-73354D01*
X87525Y-73445D01*
X87496Y-73445D01*
X87404Y-73483D01*
X87333Y-73553D01*
X87295Y-73645D01*
X87295Y-73745D01*
X87295Y-74453D01*
X87333Y-74545D01*
X87403Y-74616D01*
X87495Y-74654D01*
X87525Y-74654D01*
X87525Y-74745D01*
X87496Y-74745D01*
X87404Y-74783D01*
X87333Y-74853D01*
X87295Y-74945D01*
X87295Y-75045D01*
X87295Y-75753D01*
X87333Y-75845D01*
X87403Y-75916D01*
X87495Y-75954D01*
X87525Y-75954D01*
X87525Y-76045D01*
X87496Y-76045D01*
X87404Y-76083D01*
X87333Y-76153D01*
X87295Y-76245D01*
X87295Y-76345D01*
X87295Y-77053D01*
X87333Y-77145D01*
X87403Y-77216D01*
X87495Y-77254D01*
X87525Y-77254D01*
X87525Y-77345D01*
X87496Y-77345D01*
X87404Y-77383D01*
X87333Y-77453D01*
X87295Y-77545D01*
X87295Y-77645D01*
X87295Y-78353D01*
X87333Y-78445D01*
X87403Y-78516D01*
X87495Y-78554D01*
X87595Y-78554D01*
X88303Y-78554D01*
X88395Y-78516D01*
X88466Y-78446D01*
X88483Y-78403D01*
X88500Y-78420D01*
X88545Y-78375D01*
X88579Y-78476D01*
X88805Y-78558D01*
X89045Y-78548D01*
X89220Y-78476D01*
X89254Y-78375D01*
X89254Y-83249D01*
X89242Y-83237D01*
X89020Y-83145D01*
X88780Y-83145D01*
X88558Y-83237D01*
X88425Y-83370D01*
X88425Y-82625D01*
X88425Y-82174D01*
X88424Y-82075D01*
X88386Y-81983D01*
X88316Y-81912D01*
X88224Y-81874D01*
X88012Y-81875D01*
X87950Y-81937D01*
X87950Y-82350D01*
X88362Y-82350D01*
X88425Y-82287D01*
X88425Y-82174D01*
X88425Y-82625D01*
X88425Y-82512D01*
X88362Y-82450D01*
X87950Y-82450D01*
X87950Y-82862D01*
X88012Y-82925D01*
X88224Y-82925D01*
X88316Y-82887D01*
X88386Y-82816D01*
X88424Y-82724D01*
X88425Y-82625D01*
X88425Y-83370D01*
X88399Y-83395D01*
X88242Y-83237D01*
X88020Y-83145D01*
X87850Y-83145D01*
X87850Y-82862D01*
X87850Y-82450D01*
X87842Y-82450D01*
X87842Y-82350D01*
X87850Y-82350D01*
X87850Y-81937D01*
X87787Y-81875D01*
X87575Y-81874D01*
X87483Y-81912D01*
X87413Y-81983D01*
X87375Y-82075D01*
X87374Y-82174D01*
X87374Y-82174D01*
X87345Y-82103D01*
X87197Y-81955D01*
X87004Y-81875D01*
X86796Y-81874D01*
X86603Y-81954D01*
X86455Y-82102D01*
X86375Y-82295D01*
X86374Y-82503D01*
X86454Y-82697D01*
X86602Y-82844D01*
X86795Y-82924D01*
X87003Y-82925D01*
X87197Y-82845D01*
X87344Y-82697D01*
X87374Y-82625D01*
X87374Y-82625D01*
X87375Y-82724D01*
X87413Y-82816D01*
X87483Y-82887D01*
X87575Y-82925D01*
X87787Y-82925D01*
X87850Y-82862D01*
X87850Y-83145D01*
X87780Y-83145D01*
X87558Y-83237D01*
X87399Y-83395D01*
X87242Y-83237D01*
X87020Y-83145D01*
X86780Y-83145D01*
X86558Y-83237D01*
X86399Y-83395D01*
X86242Y-83237D01*
X86179Y-83211D01*
X86179Y-79575D01*
X86179Y-78375D01*
X86168Y-78167D01*
X86110Y-78027D01*
X86017Y-78002D01*
X85947Y-78073D01*
X85947Y-77932D01*
X85925Y-77847D01*
X85925Y-73925D01*
X85925Y-73375D01*
X85887Y-73283D01*
X85816Y-73213D01*
X85724Y-73175D01*
X85625Y-73174D01*
X85075Y-73174D01*
X84983Y-73212D01*
X84913Y-73283D01*
X84875Y-73375D01*
X84874Y-73474D01*
X84874Y-73474D01*
X84845Y-73403D01*
X84697Y-73255D01*
X84504Y-73175D01*
X84296Y-73174D01*
X84103Y-73254D01*
X83955Y-73402D01*
X83875Y-73595D01*
X83874Y-73803D01*
X83954Y-73997D01*
X84025Y-74067D01*
X84025Y-75000D01*
X84053Y-75143D01*
X84134Y-75265D01*
X84269Y-75399D01*
X84000Y-75399D01*
X83908Y-75437D01*
X83838Y-75508D01*
X83800Y-75600D01*
X83799Y-75699D01*
X83799Y-76299D01*
X83837Y-76391D01*
X83908Y-76461D01*
X84000Y-76499D01*
X84099Y-76500D01*
X84699Y-76500D01*
X84791Y-76462D01*
X84861Y-76391D01*
X84899Y-76299D01*
X84899Y-76277D01*
X85038Y-76415D01*
X85240Y-76499D01*
X85458Y-76500D01*
X85661Y-76416D01*
X85815Y-76261D01*
X85899Y-76059D01*
X85900Y-75841D01*
X85816Y-75638D01*
X85661Y-75484D01*
X85459Y-75400D01*
X85330Y-75399D01*
X84775Y-74844D01*
X84775Y-74067D01*
X84844Y-73997D01*
X84874Y-73925D01*
X84874Y-74024D01*
X84912Y-74116D01*
X84983Y-74186D01*
X85075Y-74224D01*
X85174Y-74225D01*
X85724Y-74225D01*
X85816Y-74187D01*
X85886Y-74116D01*
X85924Y-74024D01*
X85925Y-73925D01*
X85925Y-77847D01*
X85922Y-77839D01*
X85725Y-77770D01*
X85517Y-77781D01*
X85377Y-77839D01*
X85352Y-77932D01*
X85650Y-78229D01*
X85947Y-77932D01*
X85947Y-78073D01*
X85720Y-78300D01*
X86017Y-78597D01*
X86110Y-78572D01*
X86179Y-78375D01*
X86179Y-79575D01*
X86168Y-79367D01*
X86110Y-79227D01*
X86017Y-79202D01*
X85947Y-79273D01*
X85947Y-79132D01*
X85947Y-78667D01*
X85650Y-78370D01*
X85352Y-78667D01*
X85377Y-78760D01*
X85574Y-78829D01*
X85782Y-78818D01*
X85922Y-78760D01*
X85947Y-78667D01*
X85947Y-79132D01*
X85922Y-79039D01*
X85725Y-78970D01*
X85517Y-78981D01*
X85377Y-79039D01*
X85352Y-79132D01*
X85650Y-79429D01*
X85947Y-79132D01*
X85947Y-79273D01*
X85720Y-79500D01*
X86017Y-79797D01*
X86110Y-79772D01*
X86179Y-79575D01*
X86179Y-83211D01*
X86020Y-83145D01*
X85947Y-83145D01*
X85947Y-79867D01*
X85650Y-79570D01*
X85352Y-79867D01*
X85377Y-79960D01*
X85574Y-80029D01*
X85782Y-80018D01*
X85922Y-79960D01*
X85947Y-79867D01*
X85947Y-83145D01*
X85780Y-83145D01*
X85558Y-83237D01*
X85399Y-83395D01*
X85242Y-83237D01*
X85020Y-83145D01*
X84790Y-83145D01*
X84523Y-82878D01*
X84523Y-80015D01*
X84545Y-80024D01*
X84753Y-80025D01*
X84947Y-79945D01*
X85094Y-79797D01*
X85147Y-79671D01*
X85189Y-79772D01*
X85282Y-79797D01*
X85579Y-79500D01*
X85282Y-79202D01*
X85189Y-79227D01*
X85150Y-79337D01*
X85095Y-79203D01*
X84947Y-79055D01*
X84754Y-78975D01*
X84546Y-78974D01*
X84523Y-78984D01*
X84523Y-78921D01*
X84620Y-78824D01*
X84753Y-78825D01*
X84947Y-78745D01*
X85094Y-78597D01*
X85147Y-78471D01*
X85189Y-78572D01*
X85282Y-78597D01*
X85579Y-78300D01*
X85282Y-78002D01*
X85189Y-78027D01*
X85150Y-78137D01*
X85095Y-78003D01*
X84947Y-77855D01*
X84754Y-77775D01*
X84546Y-77774D01*
X84353Y-77854D01*
X84205Y-78002D01*
X84125Y-78195D01*
X84124Y-78330D01*
X83925Y-78529D01*
X83849Y-78642D01*
X83823Y-78776D01*
X83823Y-79100D01*
X80754Y-79100D01*
X80604Y-78949D01*
X80762Y-78792D01*
X80854Y-78570D01*
X80854Y-78330D01*
X80762Y-78108D01*
X80592Y-77937D01*
X80370Y-77845D01*
X80130Y-77845D01*
X79908Y-77937D01*
X79737Y-78107D01*
X79645Y-78329D01*
X79645Y-78569D01*
X79737Y-78791D01*
X79895Y-78950D01*
X79737Y-79107D01*
X79645Y-79329D01*
X79645Y-79569D01*
X79737Y-79791D01*
X79895Y-79950D01*
X79737Y-80107D01*
X79645Y-80329D01*
X79645Y-80569D01*
X79737Y-80791D01*
X79907Y-80962D01*
X79915Y-80965D01*
X79895Y-81024D01*
X80250Y-81379D01*
X80604Y-81024D01*
X80584Y-80965D01*
X80591Y-80962D01*
X80762Y-80792D01*
X80854Y-80570D01*
X80854Y-80330D01*
X80762Y-80108D01*
X80604Y-79949D01*
X80754Y-79800D01*
X83823Y-79800D01*
X83823Y-83023D01*
X83847Y-83145D01*
X83780Y-83145D01*
X83775Y-83147D01*
X83775Y-80675D01*
X83775Y-80125D01*
X83737Y-80033D01*
X83666Y-79963D01*
X83574Y-79925D01*
X83475Y-79924D01*
X82925Y-79924D01*
X82833Y-79962D01*
X82763Y-80033D01*
X82725Y-80125D01*
X82724Y-80224D01*
X82724Y-80224D01*
X82695Y-80153D01*
X82547Y-80005D01*
X82354Y-79925D01*
X82146Y-79924D01*
X81953Y-80004D01*
X81805Y-80152D01*
X81725Y-80345D01*
X81724Y-80553D01*
X81804Y-80747D01*
X81952Y-80894D01*
X82145Y-80974D01*
X82353Y-80975D01*
X82547Y-80895D01*
X82694Y-80747D01*
X82724Y-80675D01*
X82724Y-80774D01*
X82762Y-80866D01*
X82833Y-80936D01*
X82925Y-80974D01*
X83024Y-80975D01*
X83574Y-80975D01*
X83666Y-80937D01*
X83736Y-80866D01*
X83774Y-80774D01*
X83775Y-80675D01*
X83775Y-83147D01*
X83558Y-83237D01*
X83488Y-83307D01*
X83466Y-83253D01*
X83395Y-83183D01*
X83303Y-83145D01*
X83175Y-83145D01*
X83175Y-82725D01*
X83175Y-82274D01*
X83174Y-82175D01*
X83136Y-82083D01*
X83066Y-82012D01*
X82974Y-81974D01*
X82762Y-81975D01*
X82700Y-82037D01*
X82700Y-82450D01*
X83112Y-82450D01*
X83175Y-82387D01*
X83175Y-82274D01*
X83175Y-82725D01*
X83175Y-82612D01*
X83112Y-82550D01*
X82700Y-82550D01*
X82700Y-82962D01*
X82762Y-83025D01*
X82974Y-83025D01*
X83066Y-82987D01*
X83136Y-82916D01*
X83174Y-82824D01*
X83175Y-82725D01*
X83175Y-83145D01*
X83012Y-83145D01*
X82950Y-83208D01*
X82950Y-83700D01*
X82957Y-83700D01*
X82957Y-83800D01*
X82950Y-83800D01*
X82950Y-83807D01*
X82850Y-83807D01*
X82850Y-83800D01*
X82850Y-83700D01*
X82850Y-83208D01*
X82787Y-83145D01*
X82600Y-83145D01*
X82600Y-82962D01*
X82600Y-82550D01*
X82592Y-82550D01*
X82592Y-82450D01*
X82600Y-82450D01*
X82600Y-82037D01*
X82537Y-81975D01*
X82325Y-81974D01*
X82233Y-82012D01*
X82163Y-82083D01*
X82125Y-82175D01*
X82124Y-82274D01*
X82124Y-82274D01*
X82095Y-82203D01*
X81947Y-82055D01*
X81754Y-81975D01*
X81546Y-81974D01*
X81353Y-82054D01*
X81205Y-82202D01*
X81125Y-82395D01*
X81124Y-82603D01*
X81204Y-82797D01*
X81352Y-82944D01*
X81545Y-83024D01*
X81753Y-83025D01*
X81947Y-82945D01*
X82094Y-82797D01*
X82124Y-82725D01*
X82124Y-82725D01*
X82125Y-82824D01*
X82163Y-82916D01*
X82233Y-82987D01*
X82325Y-83025D01*
X82537Y-83025D01*
X82600Y-82962D01*
X82600Y-83145D01*
X82496Y-83145D01*
X82404Y-83183D01*
X82333Y-83253D01*
X82295Y-83345D01*
X82295Y-83445D01*
X82295Y-83637D01*
X82358Y-83700D01*
X82850Y-83700D01*
X82850Y-83800D01*
X82358Y-83800D01*
X82295Y-83862D01*
X82295Y-84054D01*
X82295Y-84154D01*
X82333Y-84246D01*
X82404Y-84316D01*
X82446Y-84333D01*
X82429Y-84350D01*
X82474Y-84395D01*
X82373Y-84429D01*
X82291Y-84655D01*
X82301Y-84895D01*
X82373Y-85070D01*
X82474Y-85104D01*
X82829Y-84750D01*
X82823Y-84744D01*
X82894Y-84673D01*
X82900Y-84679D01*
X82905Y-84673D01*
X82976Y-84744D01*
X82970Y-84750D01*
X83325Y-85104D01*
X83384Y-85084D01*
X83387Y-85091D01*
X83525Y-85230D01*
X83236Y-85230D01*
X83254Y-85175D01*
X82900Y-84820D01*
X82829Y-84891D01*
X82545Y-85175D01*
X82563Y-85230D01*
X80858Y-85230D01*
X80858Y-81544D01*
X80848Y-81304D01*
X80776Y-81129D01*
X80675Y-81095D01*
X80320Y-81450D01*
X80326Y-81455D01*
X80255Y-81526D01*
X80250Y-81520D01*
X80244Y-81526D01*
X80179Y-81461D01*
X80173Y-81455D01*
X80179Y-81450D01*
X79824Y-81095D01*
X79723Y-81129D01*
X79641Y-81355D01*
X79651Y-81595D01*
X79723Y-81770D01*
X79824Y-81804D01*
X79779Y-81849D01*
X79796Y-81866D01*
X79754Y-81883D01*
X79683Y-81953D01*
X79645Y-82045D01*
X79645Y-82145D01*
X79645Y-82853D01*
X79683Y-82945D01*
X79753Y-83016D01*
X79845Y-83054D01*
X79945Y-83054D01*
X80653Y-83054D01*
X80745Y-83016D01*
X80816Y-82946D01*
X80854Y-82854D01*
X80854Y-82754D01*
X80854Y-82046D01*
X80816Y-81954D01*
X80746Y-81883D01*
X80703Y-81866D01*
X80720Y-81849D01*
X80675Y-81804D01*
X80776Y-81770D01*
X80858Y-81544D01*
X80858Y-85230D01*
X80854Y-85230D01*
X79419Y-85230D01*
X79419Y-77519D01*
X81050Y-77519D01*
X83300Y-77519D01*
X83403Y-77499D01*
X83490Y-77440D01*
X83549Y-77353D01*
X83569Y-77250D01*
X83569Y-70250D01*
X83549Y-70146D01*
X83490Y-70059D01*
X83425Y-70015D01*
X83425Y-69196D01*
X83345Y-69003D01*
X83254Y-68912D01*
X83254Y-66175D01*
X82900Y-65820D01*
X82829Y-65891D01*
X82545Y-66175D01*
X82579Y-66276D01*
X82805Y-66358D01*
X83045Y-66348D01*
X83220Y-66276D01*
X83254Y-66175D01*
X83254Y-68912D01*
X83197Y-68855D01*
X83004Y-68775D01*
X82796Y-68774D01*
X82603Y-68854D01*
X82455Y-69002D01*
X82375Y-69195D01*
X82374Y-69403D01*
X82454Y-69597D01*
X82602Y-69744D01*
X82795Y-69824D01*
X83003Y-69825D01*
X83197Y-69745D01*
X83344Y-69597D01*
X83424Y-69404D01*
X83425Y-69196D01*
X83425Y-70015D01*
X83403Y-70000D01*
X83300Y-69980D01*
X81534Y-69980D01*
X81534Y-67038D01*
X81524Y-66808D01*
X81456Y-66644D01*
X81357Y-66613D01*
X81286Y-66683D01*
X81286Y-66542D01*
X81255Y-66443D01*
X81038Y-66365D01*
X80808Y-66375D01*
X80644Y-66443D01*
X80613Y-66542D01*
X80950Y-66879D01*
X81286Y-66542D01*
X81286Y-66683D01*
X81020Y-66950D01*
X81357Y-67286D01*
X81456Y-67255D01*
X81534Y-67038D01*
X81534Y-69980D01*
X81530Y-69980D01*
X81530Y-67835D01*
X81441Y-67621D01*
X81278Y-67458D01*
X81257Y-67449D01*
X81286Y-67357D01*
X80950Y-67020D01*
X80879Y-67091D01*
X80879Y-66950D01*
X80542Y-66613D01*
X80443Y-66644D01*
X80365Y-66861D01*
X80375Y-67091D01*
X80443Y-67255D01*
X80542Y-67286D01*
X80879Y-66950D01*
X80879Y-67091D01*
X80613Y-67357D01*
X80642Y-67449D01*
X80621Y-67458D01*
X80458Y-67621D01*
X80370Y-67834D01*
X80369Y-68064D01*
X80458Y-68278D01*
X80621Y-68441D01*
X80834Y-68529D01*
X81064Y-68530D01*
X81278Y-68441D01*
X81441Y-68278D01*
X81529Y-68065D01*
X81530Y-67835D01*
X81530Y-69980D01*
X81050Y-69980D01*
X80550Y-69980D01*
X79419Y-69980D01*
X79419Y-69512D01*
X79454Y-69597D01*
X79602Y-69744D01*
X79795Y-69824D01*
X80003Y-69825D01*
X80197Y-69745D01*
X80344Y-69597D01*
X80424Y-69404D01*
X80425Y-69196D01*
X80345Y-69003D01*
X80197Y-68855D01*
X80004Y-68775D01*
X79796Y-68774D01*
X79603Y-68854D01*
X79455Y-69002D01*
X79419Y-69087D01*
X79419Y-64269D01*
X82327Y-64269D01*
X82295Y-64345D01*
X82295Y-64445D01*
X82295Y-64637D01*
X82358Y-64700D01*
X82850Y-64700D01*
X82850Y-64692D01*
X82950Y-64692D01*
X82950Y-64700D01*
X82957Y-64700D01*
X82957Y-64800D01*
X82950Y-64800D01*
X82950Y-64807D01*
X82850Y-64807D01*
X82850Y-64800D01*
X82358Y-64800D01*
X82295Y-64862D01*
X82295Y-65054D01*
X82295Y-65154D01*
X82333Y-65246D01*
X82404Y-65316D01*
X82446Y-65333D01*
X82429Y-65350D01*
X82474Y-65395D01*
X82373Y-65429D01*
X82291Y-65655D01*
X82301Y-65895D01*
X82373Y-66070D01*
X82474Y-66104D01*
X82829Y-65750D01*
X82823Y-65744D01*
X82894Y-65673D01*
X82900Y-65679D01*
X82905Y-65673D01*
X82976Y-65744D01*
X82970Y-65750D01*
X83325Y-66104D01*
X83384Y-66084D01*
X83387Y-66091D01*
X83557Y-66262D01*
X83779Y-66354D01*
X84019Y-66354D01*
X84241Y-66262D01*
X84400Y-66104D01*
X84557Y-66262D01*
X84779Y-66354D01*
X85019Y-66354D01*
X85241Y-66262D01*
X85400Y-66104D01*
X85557Y-66262D01*
X85779Y-66354D01*
X86019Y-66354D01*
X86241Y-66262D01*
X86400Y-66104D01*
X86557Y-66262D01*
X86779Y-66354D01*
X87019Y-66354D01*
X87241Y-66262D01*
X87400Y-66104D01*
X87557Y-66262D01*
X87779Y-66354D01*
X88019Y-66354D01*
X88241Y-66262D01*
X88400Y-66104D01*
X88557Y-66262D01*
X88779Y-66354D01*
X89019Y-66354D01*
X89241Y-66262D01*
X89400Y-66104D01*
X89557Y-66262D01*
X89779Y-66354D01*
X90019Y-66354D01*
X90241Y-66262D01*
X90400Y-66104D01*
X90557Y-66262D01*
X90779Y-66354D01*
X91019Y-66354D01*
X91241Y-66262D01*
X91400Y-66104D01*
X91557Y-66262D01*
X91779Y-66354D01*
X92019Y-66354D01*
X92241Y-66262D01*
X92380Y-66124D01*
X92380Y-71075D01*
X92380Y-71075D01*
G37*
G54D20*
X92380Y-71075D02*
X92242Y-70937D01*
X92020Y-70845D01*
X91780Y-70845D01*
X91558Y-70937D01*
X91399Y-71095D01*
X91242Y-70937D01*
X91020Y-70845D01*
X90780Y-70845D01*
X90558Y-70937D01*
X90399Y-71095D01*
X90242Y-70937D01*
X90020Y-70845D01*
X89780Y-70845D01*
X89558Y-70937D01*
X89387Y-71107D01*
X89384Y-71115D01*
X89325Y-71095D01*
X89254Y-71166D01*
X88970Y-71450D01*
X89325Y-71804D01*
X89384Y-71784D01*
X89387Y-71791D01*
X89550Y-71954D01*
X89550Y-72245D01*
X89387Y-72407D01*
X89384Y-72415D01*
X89325Y-72395D01*
X89254Y-72466D01*
X88970Y-72750D01*
X89325Y-73104D01*
X89384Y-73084D01*
X89387Y-73091D01*
X89550Y-73254D01*
X89550Y-73545D01*
X89387Y-73707D01*
X89384Y-73715D01*
X89325Y-73695D01*
X89254Y-73766D01*
X88970Y-74050D01*
X89325Y-74404D01*
X89384Y-74384D01*
X89387Y-74391D01*
X89550Y-74554D01*
X89550Y-74845D01*
X89387Y-75007D01*
X89384Y-75015D01*
X89325Y-74995D01*
X89254Y-75066D01*
X88970Y-75350D01*
X89325Y-75704D01*
X89384Y-75684D01*
X89387Y-75691D01*
X89550Y-75854D01*
X89550Y-76145D01*
X89387Y-76307D01*
X89384Y-76315D01*
X89325Y-76295D01*
X89254Y-76366D01*
X88970Y-76650D01*
X89325Y-77004D01*
X89384Y-76984D01*
X89387Y-76991D01*
X89550Y-77154D01*
X89550Y-77445D01*
X89387Y-77607D01*
X89384Y-77615D01*
X89325Y-77595D01*
X89254Y-77666D01*
X88970Y-77950D01*
X89325Y-78304D01*
X89384Y-78284D01*
X89387Y-78291D01*
X89557Y-78462D01*
X89779Y-78554D01*
X90019Y-78554D01*
X90241Y-78462D01*
X90400Y-78304D01*
X90557Y-78462D01*
X90779Y-78554D01*
X91019Y-78554D01*
X91062Y-78536D01*
X91600Y-79074D01*
X91600Y-83220D01*
X91558Y-83237D01*
X91399Y-83395D01*
X91242Y-83237D01*
X91020Y-83145D01*
X90780Y-83145D01*
X90558Y-83237D01*
X90399Y-83395D01*
X90242Y-83237D01*
X90020Y-83145D01*
X89780Y-83145D01*
X89558Y-83237D01*
X89399Y-83395D01*
X89254Y-83249D01*
X89254Y-78375D01*
X88900Y-78020D01*
X88894Y-78026D01*
X88829Y-77961D01*
X88823Y-77955D01*
X88829Y-77950D01*
X88823Y-77944D01*
X88894Y-77873D01*
X88900Y-77879D01*
X89254Y-77524D01*
X89220Y-77423D01*
X88994Y-77341D01*
X88754Y-77351D01*
X88579Y-77423D01*
X88545Y-77524D01*
X88500Y-77479D01*
X88483Y-77496D01*
X88466Y-77454D01*
X88396Y-77383D01*
X88304Y-77345D01*
X88275Y-77345D01*
X88275Y-77254D01*
X88303Y-77254D01*
X88395Y-77216D01*
X88466Y-77146D01*
X88483Y-77103D01*
X88500Y-77120D01*
X88545Y-77075D01*
X88579Y-77176D01*
X88805Y-77258D01*
X89045Y-77248D01*
X89220Y-77176D01*
X89254Y-77075D01*
X88900Y-76720D01*
X88894Y-76726D01*
X88823Y-76655D01*
X88829Y-76650D01*
X88823Y-76644D01*
X88894Y-76573D01*
X88900Y-76579D01*
X89254Y-76224D01*
X89220Y-76123D01*
X88994Y-76041D01*
X88754Y-76051D01*
X88579Y-76123D01*
X88545Y-76224D01*
X88500Y-76179D01*
X88483Y-76196D01*
X88466Y-76154D01*
X88396Y-76083D01*
X88304Y-76045D01*
X88275Y-76045D01*
X88275Y-75954D01*
X88303Y-75954D01*
X88395Y-75916D01*
X88466Y-75846D01*
X88483Y-75803D01*
X88500Y-75820D01*
X88545Y-75775D01*
X88579Y-75876D01*
X88805Y-75958D01*
X89045Y-75948D01*
X89220Y-75876D01*
X89254Y-75775D01*
X88900Y-75420D01*
X88894Y-75426D01*
X88823Y-75355D01*
X88829Y-75350D01*
X88823Y-75344D01*
X88894Y-75273D01*
X88900Y-75279D01*
X89254Y-74924D01*
X89220Y-74823D01*
X88994Y-74741D01*
X88754Y-74751D01*
X88579Y-74823D01*
X88545Y-74924D01*
X88500Y-74879D01*
X88483Y-74896D01*
X88466Y-74854D01*
X88396Y-74783D01*
X88304Y-74745D01*
X88275Y-74745D01*
X88275Y-74654D01*
X88303Y-74654D01*
X88395Y-74616D01*
X88466Y-74546D01*
X88483Y-74503D01*
X88500Y-74520D01*
X88545Y-74475D01*
X88579Y-74576D01*
X88805Y-74658D01*
X89045Y-74648D01*
X89220Y-74576D01*
X89254Y-74475D01*
X88900Y-74120D01*
X88894Y-74126D01*
X88823Y-74055D01*
X88829Y-74050D01*
X88823Y-74044D01*
X88894Y-73973D01*
X88900Y-73979D01*
X89254Y-73624D01*
X89220Y-73523D01*
X88994Y-73441D01*
X88754Y-73451D01*
X88579Y-73523D01*
X88545Y-73624D01*
X88500Y-73579D01*
X88483Y-73596D01*
X88466Y-73554D01*
X88396Y-73483D01*
X88304Y-73445D01*
X88275Y-73445D01*
X88275Y-73354D01*
X88303Y-73354D01*
X88395Y-73316D01*
X88466Y-73246D01*
X88483Y-73203D01*
X88500Y-73220D01*
X88545Y-73175D01*
X88579Y-73276D01*
X88805Y-73358D01*
X89045Y-73348D01*
X89220Y-73276D01*
X89254Y-73175D01*
X88900Y-72820D01*
X88894Y-72826D01*
X88823Y-72755D01*
X88829Y-72750D01*
X88823Y-72744D01*
X88894Y-72673D01*
X88900Y-72679D01*
X89254Y-72324D01*
X89220Y-72223D01*
X88994Y-72141D01*
X88754Y-72151D01*
X88579Y-72223D01*
X88545Y-72324D01*
X88500Y-72279D01*
X88483Y-72296D01*
X88466Y-72254D01*
X88396Y-72183D01*
X88304Y-72145D01*
X88275Y-72145D01*
X88275Y-72054D01*
X88303Y-72054D01*
X88395Y-72016D01*
X88466Y-71946D01*
X88483Y-71903D01*
X88500Y-71920D01*
X88545Y-71875D01*
X88579Y-71976D01*
X88805Y-72058D01*
X89045Y-72048D01*
X89220Y-71976D01*
X89254Y-71875D01*
X88900Y-71520D01*
X88894Y-71526D01*
X88823Y-71455D01*
X88829Y-71450D01*
X88823Y-71444D01*
X88894Y-71373D01*
X88900Y-71379D01*
X89254Y-71024D01*
X89220Y-70923D01*
X88994Y-70841D01*
X88754Y-70851D01*
X88579Y-70923D01*
X88545Y-71024D01*
X88500Y-70979D01*
X88483Y-70996D01*
X88466Y-70954D01*
X88396Y-70883D01*
X88304Y-70845D01*
X88204Y-70845D01*
X87496Y-70845D01*
X87404Y-70883D01*
X87333Y-70953D01*
X87295Y-71045D01*
X87295Y-71145D01*
X87295Y-71853D01*
X87333Y-71945D01*
X87403Y-72016D01*
X87495Y-72054D01*
X87525Y-72054D01*
X87525Y-72145D01*
X87496Y-72145D01*
X87404Y-72183D01*
X87333Y-72253D01*
X87295Y-72345D01*
X87295Y-72445D01*
X87295Y-73153D01*
X87333Y-73245D01*
X87403Y-73316D01*
X87495Y-73354D01*
X87525Y-73354D01*
X87525Y-73445D01*
X87496Y-73445D01*
X87404Y-73483D01*
X87333Y-73553D01*
X87295Y-73645D01*
X87295Y-73745D01*
X87295Y-74453D01*
X87333Y-74545D01*
X87403Y-74616D01*
X87495Y-74654D01*
X87525Y-74654D01*
X87525Y-74745D01*
X87496Y-74745D01*
X87404Y-74783D01*
X87333Y-74853D01*
X87295Y-74945D01*
X87295Y-75045D01*
X87295Y-75753D01*
X87333Y-75845D01*
X87403Y-75916D01*
X87495Y-75954D01*
X87525Y-75954D01*
X87525Y-76045D01*
X87496Y-76045D01*
X87404Y-76083D01*
X87333Y-76153D01*
X87295Y-76245D01*
X87295Y-76345D01*
X87295Y-77053D01*
X87333Y-77145D01*
X87403Y-77216D01*
X87495Y-77254D01*
X87525Y-77254D01*
X87525Y-77345D01*
X87496Y-77345D01*
X87404Y-77383D01*
X87333Y-77453D01*
X87295Y-77545D01*
X87295Y-77645D01*
X87295Y-78353D01*
X87333Y-78445D01*
X87403Y-78516D01*
X87495Y-78554D01*
X87595Y-78554D01*
X88303Y-78554D01*
X88395Y-78516D01*
X88466Y-78446D01*
X88483Y-78403D01*
X88500Y-78420D01*
X88545Y-78375D01*
X88579Y-78476D01*
X88805Y-78558D01*
X89045Y-78548D01*
X89220Y-78476D01*
X89254Y-78375D01*
X89254Y-83249D01*
X89242Y-83237D01*
X89020Y-83145D01*
X88780Y-83145D01*
X88558Y-83237D01*
X88425Y-83370D01*
X88425Y-82625D01*
X88425Y-82174D01*
X88424Y-82075D01*
X88386Y-81983D01*
X88316Y-81912D01*
X88224Y-81874D01*
X88012Y-81875D01*
X87950Y-81937D01*
X87950Y-82350D01*
X88362Y-82350D01*
X88425Y-82287D01*
X88425Y-82174D01*
X88425Y-82625D01*
X88425Y-82512D01*
X88362Y-82450D01*
X87950Y-82450D01*
X87950Y-82862D01*
X88012Y-82925D01*
X88224Y-82925D01*
X88316Y-82887D01*
X88386Y-82816D01*
X88424Y-82724D01*
X88425Y-82625D01*
X88425Y-83370D01*
X88399Y-83395D01*
X88242Y-83237D01*
X88020Y-83145D01*
X87850Y-83145D01*
X87850Y-82862D01*
X87850Y-82450D01*
X87842Y-82450D01*
X87842Y-82350D01*
X87850Y-82350D01*
X87850Y-81937D01*
X87787Y-81875D01*
X87575Y-81874D01*
X87483Y-81912D01*
X87413Y-81983D01*
X87375Y-82075D01*
X87374Y-82174D01*
X87374Y-82174D01*
X87345Y-82103D01*
X87197Y-81955D01*
X87004Y-81875D01*
X86796Y-81874D01*
X86603Y-81954D01*
X86455Y-82102D01*
X86375Y-82295D01*
X86374Y-82503D01*
X86454Y-82697D01*
X86602Y-82844D01*
X86795Y-82924D01*
X87003Y-82925D01*
X87197Y-82845D01*
X87344Y-82697D01*
X87374Y-82625D01*
X87374Y-82625D01*
X87375Y-82724D01*
X87413Y-82816D01*
X87483Y-82887D01*
X87575Y-82925D01*
X87787Y-82925D01*
X87850Y-82862D01*
X87850Y-83145D01*
X87780Y-83145D01*
X87558Y-83237D01*
X87399Y-83395D01*
X87242Y-83237D01*
X87020Y-83145D01*
X86780Y-83145D01*
X86558Y-83237D01*
X86399Y-83395D01*
X86242Y-83237D01*
X86179Y-83211D01*
X86179Y-79575D01*
X86179Y-78375D01*
X86168Y-78167D01*
X86110Y-78027D01*
X86017Y-78002D01*
X85947Y-78073D01*
X85947Y-77932D01*
X85925Y-77847D01*
X85925Y-73925D01*
X85925Y-73375D01*
X85887Y-73283D01*
X85816Y-73213D01*
X85724Y-73175D01*
X85625Y-73174D01*
X85075Y-73174D01*
X84983Y-73212D01*
X84913Y-73283D01*
X84875Y-73375D01*
X84874Y-73474D01*
X84874Y-73474D01*
X84845Y-73403D01*
X84697Y-73255D01*
X84504Y-73175D01*
X84296Y-73174D01*
X84103Y-73254D01*
X83955Y-73402D01*
X83875Y-73595D01*
X83874Y-73803D01*
X83954Y-73997D01*
X84025Y-74067D01*
X84025Y-75000D01*
X84053Y-75143D01*
X84134Y-75265D01*
X84269Y-75399D01*
X84000Y-75399D01*
X83908Y-75437D01*
X83838Y-75508D01*
X83800Y-75600D01*
X83799Y-75699D01*
X83799Y-76299D01*
X83837Y-76391D01*
X83908Y-76461D01*
X84000Y-76499D01*
X84099Y-76500D01*
X84699Y-76500D01*
X84791Y-76462D01*
X84861Y-76391D01*
X84899Y-76299D01*
X84899Y-76277D01*
X85038Y-76415D01*
X85240Y-76499D01*
X85458Y-76500D01*
X85661Y-76416D01*
X85815Y-76261D01*
X85899Y-76059D01*
X85900Y-75841D01*
X85816Y-75638D01*
X85661Y-75484D01*
X85459Y-75400D01*
X85330Y-75399D01*
X84775Y-74844D01*
X84775Y-74067D01*
X84844Y-73997D01*
X84874Y-73925D01*
X84874Y-74024D01*
X84912Y-74116D01*
X84983Y-74186D01*
X85075Y-74224D01*
X85174Y-74225D01*
X85724Y-74225D01*
X85816Y-74187D01*
X85886Y-74116D01*
X85924Y-74024D01*
X85925Y-73925D01*
X85925Y-77847D01*
X85922Y-77839D01*
X85725Y-77770D01*
X85517Y-77781D01*
X85377Y-77839D01*
X85352Y-77932D01*
X85650Y-78229D01*
X85947Y-77932D01*
X85947Y-78073D01*
X85720Y-78300D01*
X86017Y-78597D01*
X86110Y-78572D01*
X86179Y-78375D01*
X86179Y-79575D01*
X86168Y-79367D01*
X86110Y-79227D01*
X86017Y-79202D01*
X85947Y-79273D01*
X85947Y-79132D01*
X85947Y-78667D01*
X85650Y-78370D01*
X85352Y-78667D01*
X85377Y-78760D01*
X85574Y-78829D01*
X85782Y-78818D01*
X85922Y-78760D01*
X85947Y-78667D01*
X85947Y-79132D01*
X85922Y-79039D01*
X85725Y-78970D01*
X85517Y-78981D01*
X85377Y-79039D01*
X85352Y-79132D01*
X85650Y-79429D01*
X85947Y-79132D01*
X85947Y-79273D01*
X85720Y-79500D01*
X86017Y-79797D01*
X86110Y-79772D01*
X86179Y-79575D01*
X86179Y-83211D01*
X86020Y-83145D01*
X85947Y-83145D01*
X85947Y-79867D01*
X85650Y-79570D01*
X85352Y-79867D01*
X85377Y-79960D01*
X85574Y-80029D01*
X85782Y-80018D01*
X85922Y-79960D01*
X85947Y-79867D01*
X85947Y-83145D01*
X85780Y-83145D01*
X85558Y-83237D01*
X85399Y-83395D01*
X85242Y-83237D01*
X85020Y-83145D01*
X84790Y-83145D01*
X84523Y-82878D01*
X84523Y-80015D01*
X84545Y-80024D01*
X84753Y-80025D01*
X84947Y-79945D01*
X85094Y-79797D01*
X85147Y-79671D01*
X85189Y-79772D01*
X85282Y-79797D01*
X85579Y-79500D01*
X85282Y-79202D01*
X85189Y-79227D01*
X85150Y-79337D01*
X85095Y-79203D01*
X84947Y-79055D01*
X84754Y-78975D01*
X84546Y-78974D01*
X84523Y-78984D01*
X84523Y-78921D01*
X84620Y-78824D01*
X84753Y-78825D01*
X84947Y-78745D01*
X85094Y-78597D01*
X85147Y-78471D01*
X85189Y-78572D01*
X85282Y-78597D01*
X85579Y-78300D01*
X85282Y-78002D01*
X85189Y-78027D01*
X85150Y-78137D01*
X85095Y-78003D01*
X84947Y-77855D01*
X84754Y-77775D01*
X84546Y-77774D01*
X84353Y-77854D01*
X84205Y-78002D01*
X84125Y-78195D01*
X84124Y-78330D01*
X83925Y-78529D01*
X83849Y-78642D01*
X83823Y-78776D01*
X83823Y-79100D01*
X80754Y-79100D01*
X80604Y-78949D01*
X80762Y-78792D01*
X80854Y-78570D01*
X80854Y-78330D01*
X80762Y-78108D01*
X80592Y-77937D01*
X80370Y-77845D01*
X80130Y-77845D01*
X79908Y-77937D01*
X79737Y-78107D01*
X79645Y-78329D01*
X79645Y-78569D01*
X79737Y-78791D01*
X79895Y-78950D01*
X79737Y-79107D01*
X79645Y-79329D01*
X79645Y-79569D01*
X79737Y-79791D01*
X79895Y-79950D01*
X79737Y-80107D01*
X79645Y-80329D01*
X79645Y-80569D01*
X79737Y-80791D01*
X79907Y-80962D01*
X79915Y-80965D01*
X79895Y-81024D01*
X80250Y-81379D01*
X80604Y-81024D01*
X80584Y-80965D01*
X80591Y-80962D01*
X80762Y-80792D01*
X80854Y-80570D01*
X80854Y-80330D01*
X80762Y-80108D01*
X80604Y-79949D01*
X80754Y-79800D01*
X83823Y-79800D01*
X83823Y-83023D01*
X83847Y-83145D01*
X83780Y-83145D01*
X83775Y-83147D01*
X83775Y-80675D01*
X83775Y-80125D01*
X83737Y-80033D01*
X83666Y-79963D01*
X83574Y-79925D01*
X83475Y-79924D01*
X82925Y-79924D01*
X82833Y-79962D01*
X82763Y-80033D01*
X82725Y-80125D01*
X82724Y-80224D01*
X82724Y-80224D01*
X82695Y-80153D01*
X82547Y-80005D01*
X82354Y-79925D01*
X82146Y-79924D01*
X81953Y-80004D01*
X81805Y-80152D01*
X81725Y-80345D01*
X81724Y-80553D01*
X81804Y-80747D01*
X81952Y-80894D01*
X82145Y-80974D01*
X82353Y-80975D01*
X82547Y-80895D01*
X82694Y-80747D01*
X82724Y-80675D01*
X82724Y-80774D01*
X82762Y-80866D01*
X82833Y-80936D01*
X82925Y-80974D01*
X83024Y-80975D01*
X83574Y-80975D01*
X83666Y-80937D01*
X83736Y-80866D01*
X83774Y-80774D01*
X83775Y-80675D01*
X83775Y-83147D01*
X83558Y-83237D01*
X83488Y-83307D01*
X83466Y-83253D01*
X83395Y-83183D01*
X83303Y-83145D01*
X83175Y-83145D01*
X83175Y-82725D01*
X83175Y-82274D01*
X83174Y-82175D01*
X83136Y-82083D01*
X83066Y-82012D01*
X82974Y-81974D01*
X82762Y-81975D01*
X82700Y-82037D01*
X82700Y-82450D01*
X83112Y-82450D01*
X83175Y-82387D01*
X83175Y-82274D01*
X83175Y-82725D01*
X83175Y-82612D01*
X83112Y-82550D01*
X82700Y-82550D01*
X82700Y-82962D01*
X82762Y-83025D01*
X82974Y-83025D01*
X83066Y-82987D01*
X83136Y-82916D01*
X83174Y-82824D01*
X83175Y-82725D01*
X83175Y-83145D01*
X83012Y-83145D01*
X82950Y-83208D01*
X82950Y-83700D01*
X82957Y-83700D01*
X82957Y-83800D01*
X82950Y-83800D01*
X82950Y-83807D01*
X82850Y-83807D01*
X82850Y-83800D01*
X82850Y-83700D01*
X82850Y-83208D01*
X82787Y-83145D01*
X82600Y-83145D01*
X82600Y-82962D01*
X82600Y-82550D01*
X82592Y-82550D01*
X82592Y-82450D01*
X82600Y-82450D01*
X82600Y-82037D01*
X82537Y-81975D01*
X82325Y-81974D01*
X82233Y-82012D01*
X82163Y-82083D01*
X82125Y-82175D01*
X82124Y-82274D01*
X82124Y-82274D01*
X82095Y-82203D01*
X81947Y-82055D01*
X81754Y-81975D01*
X81546Y-81974D01*
X81353Y-82054D01*
X81205Y-82202D01*
X81125Y-82395D01*
X81124Y-82603D01*
X81204Y-82797D01*
X81352Y-82944D01*
X81545Y-83024D01*
X81753Y-83025D01*
X81947Y-82945D01*
X82094Y-82797D01*
X82124Y-82725D01*
X82124Y-82725D01*
X82125Y-82824D01*
X82163Y-82916D01*
X82233Y-82987D01*
X82325Y-83025D01*
X82537Y-83025D01*
X82600Y-82962D01*
X82600Y-83145D01*
X82496Y-83145D01*
X82404Y-83183D01*
X82333Y-83253D01*
X82295Y-83345D01*
X82295Y-83445D01*
X82295Y-83637D01*
X82358Y-83700D01*
X82850Y-83700D01*
X82850Y-83800D01*
X82358Y-83800D01*
X82295Y-83862D01*
X82295Y-84054D01*
X82295Y-84154D01*
X82333Y-84246D01*
X82404Y-84316D01*
X82446Y-84333D01*
X82429Y-84350D01*
X82474Y-84395D01*
X82373Y-84429D01*
X82291Y-84655D01*
X82301Y-84895D01*
X82373Y-85070D01*
X82474Y-85104D01*
X82829Y-84750D01*
X82823Y-84744D01*
X82894Y-84673D01*
X82900Y-84679D01*
X82905Y-84673D01*
X82976Y-84744D01*
X82970Y-84750D01*
X83325Y-85104D01*
X83384Y-85084D01*
X83387Y-85091D01*
X83525Y-85230D01*
X83236Y-85230D01*
X83254Y-85175D01*
X82900Y-84820D01*
X82829Y-84891D01*
X82545Y-85175D01*
X82563Y-85230D01*
X80858Y-85230D01*
X80858Y-81544D01*
X80848Y-81304D01*
X80776Y-81129D01*
X80675Y-81095D01*
X80320Y-81450D01*
X80326Y-81455D01*
X80255Y-81526D01*
X80250Y-81520D01*
X80244Y-81526D01*
X80179Y-81461D01*
X80173Y-81455D01*
X80179Y-81450D01*
X79824Y-81095D01*
X79723Y-81129D01*
X79641Y-81355D01*
X79651Y-81595D01*
X79723Y-81770D01*
X79824Y-81804D01*
X79779Y-81849D01*
X79796Y-81866D01*
X79754Y-81883D01*
X79683Y-81953D01*
X79645Y-82045D01*
X79645Y-82145D01*
X79645Y-82853D01*
X79683Y-82945D01*
X79753Y-83016D01*
X79845Y-83054D01*
X79945Y-83054D01*
X80653Y-83054D01*
X80745Y-83016D01*
X80816Y-82946D01*
X80854Y-82854D01*
X80854Y-82754D01*
X80854Y-82046D01*
X80816Y-81954D01*
X80746Y-81883D01*
X80703Y-81866D01*
X80720Y-81849D01*
X80675Y-81804D01*
X80776Y-81770D01*
X80858Y-81544D01*
X80858Y-85230D01*
X80854Y-85230D01*
X79419Y-85230D01*
X79419Y-77519D01*
X81050Y-77519D01*
X83300Y-77519D01*
X83403Y-77499D01*
X83490Y-77440D01*
X83549Y-77353D01*
X83569Y-77250D01*
X83569Y-70250D01*
X83549Y-70146D01*
X83490Y-70059D01*
X83425Y-70015D01*
X83425Y-69196D01*
X83345Y-69003D01*
X83254Y-68912D01*
X83254Y-66175D01*
X82900Y-65820D01*
X82829Y-65891D01*
X82545Y-66175D01*
X82579Y-66276D01*
X82805Y-66358D01*
X83045Y-66348D01*
X83220Y-66276D01*
X83254Y-66175D01*
X83254Y-68912D01*
X83197Y-68855D01*
X83004Y-68775D01*
X82796Y-68774D01*
X82603Y-68854D01*
X82455Y-69002D01*
X82375Y-69195D01*
X82374Y-69403D01*
X82454Y-69597D01*
X82602Y-69744D01*
X82795Y-69824D01*
X83003Y-69825D01*
X83197Y-69745D01*
X83344Y-69597D01*
X83424Y-69404D01*
X83425Y-69196D01*
X83425Y-70015D01*
X83403Y-70000D01*
X83300Y-69980D01*
X81534Y-69980D01*
X81534Y-67038D01*
X81524Y-66808D01*
X81456Y-66644D01*
X81357Y-66613D01*
X81286Y-66683D01*
X81286Y-66542D01*
X81255Y-66443D01*
X81038Y-66365D01*
X80808Y-66375D01*
X80644Y-66443D01*
X80613Y-66542D01*
X80950Y-66879D01*
X81286Y-66542D01*
X81286Y-66683D01*
X81020Y-66950D01*
X81357Y-67286D01*
X81456Y-67255D01*
X81534Y-67038D01*
X81534Y-69980D01*
X81530Y-69980D01*
X81530Y-67835D01*
X81441Y-67621D01*
X81278Y-67458D01*
X81257Y-67449D01*
X81286Y-67357D01*
X80950Y-67020D01*
X80879Y-67091D01*
X80879Y-66950D01*
X80542Y-66613D01*
X80443Y-66644D01*
X80365Y-66861D01*
X80375Y-67091D01*
X80443Y-67255D01*
X80542Y-67286D01*
X80879Y-66950D01*
X80879Y-67091D01*
X80613Y-67357D01*
X80642Y-67449D01*
X80621Y-67458D01*
X80458Y-67621D01*
X80370Y-67834D01*
X80369Y-68064D01*
X80458Y-68278D01*
X80621Y-68441D01*
X80834Y-68529D01*
X81064Y-68530D01*
X81278Y-68441D01*
X81441Y-68278D01*
X81529Y-68065D01*
X81530Y-67835D01*
X81530Y-69980D01*
X81050Y-69980D01*
X80550Y-69980D01*
X79419Y-69980D01*
X79419Y-69512D01*
X79454Y-69597D01*
X79602Y-69744D01*
X79795Y-69824D01*
X80003Y-69825D01*
X80197Y-69745D01*
X80344Y-69597D01*
X80424Y-69404D01*
X80425Y-69196D01*
X80345Y-69003D01*
X80197Y-68855D01*
X80004Y-68775D01*
X79796Y-68774D01*
X79603Y-68854D01*
X79455Y-69002D01*
X79419Y-69087D01*
X79419Y-64269D01*
X82327Y-64269D01*
X82295Y-64345D01*
X82295Y-64445D01*
X82295Y-64637D01*
X82358Y-64700D01*
X82850Y-64700D01*
X82850Y-64692D01*
X82950Y-64692D01*
X82950Y-64700D01*
X82957Y-64700D01*
X82957Y-64800D01*
X82950Y-64800D01*
X82950Y-64807D01*
X82850Y-64807D01*
X82850Y-64800D01*
X82358Y-64800D01*
X82295Y-64862D01*
X82295Y-65054D01*
X82295Y-65154D01*
X82333Y-65246D01*
X82404Y-65316D01*
X82446Y-65333D01*
X82429Y-65350D01*
X82474Y-65395D01*
X82373Y-65429D01*
X82291Y-65655D01*
X82301Y-65895D01*
X82373Y-66070D01*
X82474Y-66104D01*
X82829Y-65750D01*
X82823Y-65744D01*
X82894Y-65673D01*
X82900Y-65679D01*
X82905Y-65673D01*
X82976Y-65744D01*
X82970Y-65750D01*
X83325Y-66104D01*
X83384Y-66084D01*
X83387Y-66091D01*
X83557Y-66262D01*
X83779Y-66354D01*
X84019Y-66354D01*
X84241Y-66262D01*
X84400Y-66104D01*
X84557Y-66262D01*
X84779Y-66354D01*
X85019Y-66354D01*
X85241Y-66262D01*
X85400Y-66104D01*
X85557Y-66262D01*
X85779Y-66354D01*
X86019Y-66354D01*
X86241Y-66262D01*
X86400Y-66104D01*
X86557Y-66262D01*
X86779Y-66354D01*
X87019Y-66354D01*
X87241Y-66262D01*
X87400Y-66104D01*
X87557Y-66262D01*
X87779Y-66354D01*
X88019Y-66354D01*
X88241Y-66262D01*
X88400Y-66104D01*
X88557Y-66262D01*
X88779Y-66354D01*
X89019Y-66354D01*
X89241Y-66262D01*
X89400Y-66104D01*
X89557Y-66262D01*
X89779Y-66354D01*
X90019Y-66354D01*
X90241Y-66262D01*
X90400Y-66104D01*
X90557Y-66262D01*
X90779Y-66354D01*
X91019Y-66354D01*
X91241Y-66262D01*
X91400Y-66104D01*
X91557Y-66262D01*
X91779Y-66354D01*
X92019Y-66354D01*
X92241Y-66262D01*
X92380Y-66124D01*
X92380Y-71075D01*
M02*
